<svg width="32" height="33" viewBox="0 0 32 33" fill="none" xmlns="http://www.w3.org/2000/svg">
<g clip-path="url(#clip0_41_392)">
<rect y="0.75" width="32" height="32" rx="16" fill="#573428"/>
<path d="M32.0001 16.848C32.0001 7.95605 24.8361 0.748047 16.0001 0.748047C7.16009 0.750047 -0.00390625 7.95605 -0.00390625 16.85C-0.00390625 24.884 5.84809 31.544 13.4961 32.752V21.502H9.43609V16.85H13.5001V13.3C13.5001 9.26605 15.8901 7.03805 19.5441 7.03805C21.2961 7.03805 23.1261 7.35205 23.1261 7.35205V11.312H21.1081C19.1221 11.312 18.5021 12.554 18.5021 13.828V16.848H22.9381L22.2301 21.5H18.5001V32.75C26.1481 31.542 32.0001 24.882 32.0001 16.848Z" fill="#EEE3C6"/>
</g>
<defs>
<clipPath id="clip0_41_392">
<rect y="0.75" width="32" height="32" rx="16" fill="white"/>
</clipPath>
</defs>
</svg>
