<svg width="32" height="33" viewBox="0 0 32 33" fill="none" xmlns="http://www.w3.org/2000/svg">
<g clip-path="url(#clip0_41_390)">
<rect y="0.75" width="32" height="32" rx="10.24" fill="#573428"/>
<path d="M16 0.75C11.658 0.75 11.112 0.77 9.406 0.846C7.7 0.926 6.538 1.194 5.52 1.59C4.45169 1.99065 3.48428 2.6208 2.686 3.436C1.8708 4.23428 1.24065 5.20169 0.84 6.27C0.444 7.286 0.174 8.45 0.096 10.15C0.02 11.86 0 12.404 0 16.752C0 21.096 0.02 21.64 0.096 23.346C0.176 25.05 0.444 26.212 0.84 27.23C1.25 28.282 1.796 29.174 2.686 30.064C3.574 30.954 4.466 31.502 5.518 31.91C6.538 32.306 7.698 32.576 9.402 32.654C11.11 32.73 11.654 32.75 16 32.75C20.346 32.75 20.888 32.73 22.596 32.654C24.298 32.574 25.464 32.306 26.482 31.91C27.5496 31.5091 28.5163 30.879 29.314 30.064C30.204 29.174 30.75 28.282 31.16 27.23C31.554 26.212 31.824 25.05 31.904 23.346C31.98 21.64 32 21.096 32 16.75C32 12.404 31.98 11.86 31.904 10.152C31.824 8.45 31.554 7.286 31.16 6.27C30.7593 5.20169 30.1292 4.23428 29.314 3.436C28.5157 2.6208 27.5483 1.99065 26.48 1.59C25.46 1.194 24.296 0.924 22.594 0.846C20.886 0.77 20.344 0.75 15.996 0.75H16ZM14.566 3.634H16.002C20.274 3.634 20.78 3.648 22.466 3.726C24.026 3.796 24.874 4.058 25.438 4.276C26.184 4.566 26.718 4.914 27.278 5.474C27.838 6.034 28.184 6.566 28.474 7.314C28.694 7.876 28.954 8.724 29.024 10.284C29.102 11.97 29.118 12.476 29.118 16.746C29.118 21.016 29.102 21.524 29.024 23.21C28.954 24.77 28.692 25.616 28.474 26.18C28.2157 26.8738 27.8065 27.5016 27.276 28.018C26.716 28.578 26.184 28.924 25.436 29.214C24.876 29.434 24.028 29.694 22.466 29.766C20.78 29.842 20.274 29.86 16.002 29.86C11.73 29.86 11.222 29.842 9.536 29.766C7.976 29.694 7.13 29.434 6.566 29.214C5.87167 28.9565 5.2432 28.548 4.726 28.018C4.19455 27.5012 3.78466 26.8727 3.526 26.178C3.308 25.616 3.046 24.768 2.976 23.208C2.9 21.522 2.884 21.016 2.884 16.742C2.884 12.468 2.9 11.966 2.976 10.28C3.048 8.72 3.308 7.872 3.528 7.308C3.818 6.562 4.166 6.028 4.726 5.468C5.286 4.908 5.818 4.562 6.566 4.272C7.13 4.052 7.976 3.792 9.536 3.72C11.012 3.652 11.584 3.632 14.566 3.63V3.634ZM24.542 6.29C24.2899 6.29 24.0402 6.33966 23.8072 6.43615C23.5743 6.53264 23.3626 6.67407 23.1844 6.85236C23.0061 7.03064 22.8646 7.2423 22.7682 7.47525C22.6717 7.70819 22.622 7.95786 22.622 8.21C22.622 8.46214 22.6717 8.71181 22.7682 8.94475C22.8646 9.1777 23.0061 9.38936 23.1844 9.56765C23.3626 9.74593 23.5743 9.88736 23.8072 9.98385C24.0402 10.0803 24.2899 10.13 24.542 10.13C25.0512 10.13 25.5396 9.92771 25.8996 9.56765C26.2597 9.20758 26.462 8.71922 26.462 8.21C26.462 7.70078 26.2597 7.21242 25.8996 6.85236C25.5396 6.49229 25.0512 6.29 24.542 6.29ZM16.002 8.534C14.9121 8.517 13.8298 8.71697 12.818 9.12228C11.8061 9.52759 10.885 10.1301 10.1083 10.8948C9.33157 11.6596 8.71473 12.5711 8.29368 13.5765C7.87264 14.5819 7.6558 15.661 7.6558 16.751C7.6558 17.841 7.87264 18.9201 8.29368 19.9255C8.71473 20.9309 9.33157 21.8424 10.1083 22.6072C10.885 23.3719 11.8061 23.9744 12.818 24.3797C13.8298 24.785 14.9121 24.985 16.002 24.968C18.1591 24.9343 20.2164 24.0538 21.73 22.5165C23.2435 20.9792 24.0918 18.9083 24.0918 16.751C24.0918 14.5937 23.2435 12.5228 21.73 10.9855C20.2164 9.44817 18.1591 8.56765 16.002 8.534ZM16.002 11.416C16.7025 11.416 17.3961 11.554 18.0432 11.822C18.6904 12.0901 19.2784 12.483 19.7737 12.9783C20.269 13.4736 20.6619 14.0616 20.93 14.7088C21.198 15.3559 21.336 16.0495 21.336 16.75C21.336 17.4505 21.198 18.1441 20.93 18.7912C20.6619 19.4384 20.269 20.0264 19.7737 20.5217C19.2784 21.017 18.6904 21.4099 18.0432 21.678C17.3961 21.946 16.7025 22.084 16.002 22.084C14.5873 22.084 13.2306 21.522 12.2303 20.5217C11.23 19.5214 10.668 18.1647 10.668 16.75C10.668 15.3353 11.23 13.9786 12.2303 12.9783C13.2306 11.978 14.5873 11.416 16.002 11.416Z" fill="#6F4C41"/>
</g>
<defs>
<clipPath id="clip0_41_390">
<rect y="0.75" width="32" height="32" rx="10.24" fill="white"/>
</clipPath>
</defs>
</svg>
