<svg width="32" height="33" viewBox="0 0 32 33" fill="none" xmlns="http://www.w3.org/2000/svg">
<g clip-path="url(#clip0_41_394)">
<rect y="0.75" width="32" height="32" rx="2.56" fill="#573428"/>
<path d="M0 3.042C0 1.776 1.052 0.75 2.35 0.75H29.65C30.948 0.75 32 1.776 32 3.042V30.458C32 31.724 30.948 32.75 29.65 32.75H2.35C1.052 32.75 0 31.724 0 30.458V3.042ZM9.886 27.538V13.088H5.084V27.538H9.886ZM7.486 11.114C9.16 11.114 10.202 10.006 10.202 8.618C10.172 7.2 9.162 6.122 7.518 6.122C5.874 6.122 4.8 7.202 4.8 8.618C4.8 10.006 5.842 11.114 7.454 11.114H7.486ZM17.302 27.538V19.468C17.302 19.036 17.334 18.604 17.462 18.296C17.808 17.434 18.598 16.54 19.926 16.54C21.664 16.54 22.358 17.864 22.358 19.808V27.538H27.16V19.25C27.16 14.81 24.792 12.746 21.632 12.746C19.084 12.746 17.942 14.146 17.302 15.132V15.182H17.27L17.302 15.132V13.088H12.502C12.562 14.444 12.502 27.538 12.502 27.538H17.302Z" fill="#EEE3C6"/>
</g>
<defs>
<clipPath id="clip0_41_394">
<rect y="0.75" width="32" height="32" rx="2.56" fill="white"/>
</clipPath>
</defs>
</svg>
