<?xml version="1.0" encoding="UTF-8" standalone="no"?>
<!-- Creator: CorelDRAW 2021.5 -->

<svg
   xml:space="preserve"
   width="95.725998mm"
   height="119.215mm"
   version="1.1"
   style="clip-rule:evenodd;fill-rule:evenodd;image-rendering:optimizeQuality;shape-rendering:geometricPrecision;text-rendering:geometricPrecision"
   viewBox="0 0 9572.5998 11921.5"
   id="svg3"
   sodipodi:docname="Marca Light.svg"
   inkscape:version="1.3.2 (091e20e, 2023-11-25, custom)"
   xmlns:inkscape="http://www.inkscape.org/namespaces/inkscape"
   xmlns:sodipodi="http://sodipodi.sourceforge.net/DTD/sodipodi-0.dtd"
   xmlns="http://www.w3.org/2000/svg"
   xmlns:svg="http://www.w3.org/2000/svg"><sodipodi:namedview
   id="namedview3"
   pagecolor="#ffffff"
   bordercolor="#000000"
   borderopacity="0.25"
   inkscape:showpageshadow="2"
   inkscape:pageopacity="0.0"
   inkscape:pagecheckerboard="0"
   inkscape:deskcolor="#d1d1d1"
   inkscape:document-units="mm"
   inkscape:zoom="1.9830139"
   inkscape:cx="239.28224"
   inkscape:cy="205.49528"
   inkscape:window-width="2560"
   inkscape:window-height="1001"
   inkscape:window-x="-9"
   inkscape:window-y="-9"
   inkscape:window-maximized="1"
   inkscape:current-layer="Capa_x0020_1" />
 <defs
   id="defs1">
  <style
   type="text/css"
   id="style1">
   <![CDATA[
    .fil2 {fill:#573428}
    .fil1 {fill:#F8A655}
    .fil0 {fill:#EEE3C6;fill-rule:nonzero}
   ]]>
  </style>
 <filter
   inkscape:collect="always"
   style="color-interpolation-filters:sRGB"
   id="filter4"
   x="-0.02286451"
   y="-0.017945758"
   width="1.045729"
   height="1.0358915"><feGaussianBlur
     inkscape:collect="always"
     stdDeviation="81.640162"
     id="feGaussianBlur4" /></filter></defs>
 <g
   id="Capa_x0020_1"
   inkscape:label="Capa 1"
   inkscape:groupmode="layer">
  <metadata
   id="CorelCorpID_0Corel-Layer" />
  <path
   class="fil0"
   d="m 5553.6847,3200.9579 c 135.86,-132.54 220.23,-317.62 220.23,-522.41 0,-403.07 -326.76,-729.8 -729.8,-729.8 -82.54,0 -161.87,13.72 -235.86,38.97 0.01,-13.91 -2.67,-23.19 -7.35,-40.24 -5.58,-20.66 -14.07,-52.63 -26.32,-94.51 -12.23,-41.86 -28.18,-93.64 -37.15,-155.23 -8.97,-61.7 -10.82,-133.19 -9.9,-200.45 0.93,-67.34 4.71,-130.41 12.7,-192.93 8.05,-62.55 20.27,-124.63 33.42,-187.7 13.18,-63.01 27.33,-127.00999 47.07,-184.88999 19.79,-57.89 45.19,-109.6 68.24,-144.42 23.07,-34.83 43.81,-52.71 58.36,-61.15 14.61,-8.51 23.05,-7.57 27.31,1.4 4.18,8.9 4.18,25.85 1.88,43.26 -2.41,17.42 -7.12,35.23 -9.45,56.43 -2.41,21.2 -2.41,45.66 7.51,76.23 9.82,30.64 29.64,67.32 55.49,104.46999 25.85,37.16 57.81,74.84 98.29,112.46 40.4,37.61 89.4,75.3 139.7,112.45 50.32,37.22 102.1,73.89 143.96,104.48 41.94,30.64 73.9,55.03 98.37,75.77 24.45,20.67 41.33,37.6 51.23,55.96 9.92,18.34 12.7,38.08 16.03,49.37 3.31,11.3 7.04,14.08 10.82,11.3 3.78,-2.8 7.52,-11.3 12.7,-37.15 5.19,-25.85 11.78,-69.18 17.41,-119.03 5.66,-49.85 10.37,-106.34 8.97,-160.44 -1.4,-54.17 -8.97,-105.87 -21.67,-152.93 -12.67,-47.05 -30.56,-89.38999 -59.27,-134.10999 -28.7,-44.73 -68.26,-91.79 -116.25,-135.98 -47.97,-44.27 -104.41,-85.61 -156.19,-113.39 -51.7,-27.71 -98.74,-41.87 -131.71,-49.38 -32.91,-7.57 -51.72,-8.5 -62.07,-10.36 -10.37,-1.93 -12.25,-4.72 -10.85,-9.44 1.41,-4.72 6.12,-11.3 13.18,-21.67 7.04,-10.37 16.48,-24.46 17.86,-37.15 1.4,-12.76 -5.19,-24.06 -16.01,-32.5 -10.77,-8.51 -25.85,-14.15 -50.32,-14.62 -24.45,-0.47 -58.34,4.25 -118.09,28.24 -59.76,24 -145.36,67.26 -244.18,143.5 -98.77,76.22 -210.74,185.35 -299.67,313.82 -88.92,128.46999 -154.78,276.20999 -208.57,458.97999 -53.76,182.78 -95.43,400.64 -114.69,518.72 l 0.13,0.34 c -7.67,46.96 -11.81,78.14 -13.58,99.49 l -8.91,-0.06 c -403.04,0 -729.8,326.74 -729.8,729.8 0,247.82 123.55,466.75 312.39,598.66 -116.3,23.71 -226.94,50.26 -365.94,91.67 -202.78,60.4 -466.04,152.45 -680.3,243.04 -214.26,90.6 -379.7,179.79 -569.52,298.4 -189.86,118.64 -404.15,266.78 -550.14,391.93 -146.03,125.15 -223.66,227.22 -297.9,332.98 -74.21,105.72 -144.94,215.05 -180.88996,331.23 -35.96,116.12 -37.02,239.08 -14.56,342.61 22.47,103.56 68.39996,187.69 151.04996,273.55 82.69,85.94 202.07,173.67 348.01,227.62 68.14,25.16 142.05,42.97 220.3,55.68 215.55,50.24 528.81,97.4 773.32,116.54 270.61,21.19 457.04,7.96 640.66,-10.16 183.65,-18.15 364.49,-41.36 599.28,-82.5 234.82,-41.11 523.53,-100.28 845.32,-177.16 321.81,-76.92 676.78,-171.56 998.59,-243.71 321.78,-72.18 610.5,-121.84 864.84,-140.79 254.35,-18.94 474.48,-7.09 638.89,28.39 164.44,35.48 273.29,94.65 339.57,197.59 66.25,102.95 89.9,249.64 66.25,407.01 -23.65,157.38 -94.64,325.39 -168.01,454.32 -26.65,46.84 -53.63,88.52 -79.95,125.57 -90.87,41.63 -186.39,80.46 -288.19,117.69 -151.68,55.45 -317.33,107.22 -484.16,148.41 2.63,-9.67 5.03,-19.11 7.25,-28.27 14.42,-59.47 20.66,-107.05 15.69,-144.01 -5,-36.96 -21.28,-63.26 -41.36,-80.83 -20,-17.54 -43.87,-26.3 -75.75,-26.3 -31.99,0 -72.04,8.76 -121.5,28.84 -49.45,20.06 -108.34,51.38 -165.36,103.96 -56.96,52.62 -112.1,126.52 -176.58,225.42 -5.27,8.09 -10.61,16.35 -15.99,24.75 -39.35,5.28 -79.11,10.41 -119.4,15.52 -192.15,24.34 -396.4,48.09 -604.4,60.77 47.56,-104.08 92.04,-200.71 131.14,-285.06 178.65,-385.41 244.77,-514.4 296.89,-614.49 52.1,-100.09 90.12,-171.21 123.22,-216.67 33.09,-45.45 61.19,-65.32 84.32,-78.55 23.15,-13.23 41.35,-19.87 43.02,-33.1 l -0.13,0.18 c 1.64,-13.23 -13.23,-33.1 -43.02,-52.09 -29.77,-19 -74.43,-37.23 -115.76,-42.2 -41.35,-5.01 -79.43,3.3 -117.45,18.2 -38.02,14.89 -76.09,36.35 -109.99,67.78 -33.89,31.44 -63.68,72.79 -102.55,148.01 -38.87,75.25 -86.86,184.44 -164.54,346.53 -77.76,162.11 -185.24,377.11 -292.76,611.98 -21.14,46.15 -42.27,93.08 -63.35,140.55 -145.65,1.62 -300.86,0.22 -478.41,-0.67 -291.97,-1.45 -644.34,-1.45 -921.2,0.75 -276.89,2.19 -478.19,6.42 -699.72,15.08 -221.51,8.65 -463.1,21.59 -673.1,45.98 -210.03,24.47 -388.33,60.43 -563.06,122.24 -174.73,61.86 -345.94,149.59 -474.60996,247.36 -128.72,97.84 -215,205.68 -289.11,323.58 -74.08,117.9304 -135.89,245.9904 -165.42,361.6904 -29.5,115.78 -26.56,219.34 -1.45,291.23 25.18,71.91 72.65,112.2 119.35,127.29 46.73,15.08 92.79,5.05 151.74,-24.48 58.95,-29.5 130.86,-78.34 190.55,-128 59.65996,-49.64 107.12996,-99.94 135.17996,-138.75 28.04,-38.82 36.69,-66.15 42.41,-63.29 5.71,2.86 8.62,35.96 8.62,79.08 0,43.16 -2.85,96.39 8.66,141.64 11.48,45.32 37.33,82.76 81.94,104.3 44.58,21.59 107.87,27.3 168.27,25.18 60.41,-2.14 117.9,-12.25 174.73,-42.49 56.84,-30.16 112.93,-80.54 173.33,-151 60.41,-70.43 125.15,-161.1 164.68,-222.91 39.55,-61.86 53.92,-94.9 66.86,-94.9 12.96,0 24.47,33.1 53.23,66.19 28.79,33.1 74.77,66.15 126.55,74.78 51.78,8.65 109.33,-7.17 152.46,-21.59 39.52,-13.16 66.96,-25.15 99.49,-46.96 -2.25,20.86 -3.69,41.25 -4.45,63.7 -1.14,35.04 -0.61,74.96 4.04,115.36 4.66,40.43 13.42,81.36 34.61,119.3 21.22,37.97 54.85,73.05 92.74,98.43 37.86,25.4 80.14,41.14 131.65,49 51.49,7.83 112.32,7.83 165.21,4.23 52.92,-3.57 98.03,-10.69 138.77,-25.37 40.75,-14.69 77.24,-36.83 119.44,-65.06 42.2,-28.26 90.11,-62.6 127.74,-97.32 37.54,-34.68 64.74,-69.71 89.8,-104.45 25.05,-34.72 47.91,-69.06 68.63,-103.03 15.46,-25.27 29.71,-50.36 42.63,-73.19 l -0.16,1.14 c -4.98,34.64 -7.84,64.69 -9.05,99.7 -1.11,35.03 -0.59,74.98 4.07,115.38 4.66,40.4 13.42,81.36 34.61,119.3 21.22,37.94 54.85,73.05 92.74,98.43 37.86,25.4 80.14,41.14 131.65,48.97 51.49,7.86 112.32,7.86 165.21,4.26 52.91,-3.6 98.03,-10.69 138.77,-25.37 40.75,-14.71 77.23,-36.83 119.43,-65.09 30.04,-20.09 62.97,-43.29 93.02,-67.5 -74.09,203.17 -141.02,399.24 -190.94,561.19 -57.07,185.23 -91.78,325.86 -124.06,460.64 -32.25,134.77 -62.02,263.84 -83.56,403.62 -21.53,139.7497 -34.76,290.2997 -26.45,441.6397 8.25,151.32 38.02,303.5 85.14,432.99 47.12,129.51 111.6,236.33 202.51,331.97 90.91,95.62 208.15,180.03 366.61,226.17 158.43,46.12 357.95,54.03 523.5,37.86 165.55,-16.06 297.21,-56.14 410.05,-111.04 112.87,-54.91 206.99,-124.62 287.92,-209.95 80.97,-85.33 148.75,-186.21 204.18,-300.33 55.43,-114.11 98.43,-241.46 115.76,-369.68 17.35,-128.19 9.13,-257.2 -32.68,-375.02 -41.8,-117.7597 -117.18,-224.3897 -196,-299.8197 -78.82,-75.43 -161.11,-119.67 -259.14,-145.6 -98.02,-25.93 -211.87,-33.45 -318.21,-19.55 -106.34,13.89 -205.24,49.18 -285.91,101.09 -80.7,51.91 -143.16,120.44 -173.8,199.31 -30.7,78.9 -29.58,168.2297 -13.36,222.7797 16.29,54.56 47.73,74.43 68.39,76.89 20.66,2.46 30.56,-12.41 32.23,-37.99 1.66,-25.67 -4.98,-62.02 -2.46,-100.92 2.46,-38.86 14.1,-80.1897 46.8,-133.4997 32.76,-53.29 86.6,-118.56 150.34,-160.77 63.66,-42.2 137.16,-61.27 211.93,-68.31 74.77,-7.07 150.86,-2.06 212.88,10.29 61.99,12.44 109.99,32.23 169.07,70.86 59.08,38.6 129.33,96.01 183.83,190.73 54.43,94.6997 93.11,226.6197 89.33,370.1797 -3.79,143.57 -50.04,298.61 -121.24,432.99 -71.09,134.39 -167.13,247.97 -294.69,333.64 -127.58,85.68 -286.7,143.43 -427.59,169.55 -140.89,26.11 -263.53,20.53 -379.57,-4 -116.02,-24.58 -225.43,-68.18 -323.4,-145.81 -97.95,-77.63 -184.55,-189.15 -237.73,-323.27 -53.16,-134.11 -72.97,-290.69 -72.97,-456.64 0,-165.97 19.87,-341.2897 64.53,-532.3697 44.66,-191 114.11,-397.75 186.11,-618.62 71.96,-220.77 146.39,-455.64 329.16,-894.03 123.17,-295.35 295.5,-683.0604 449.48,-1022.4804 47.74,-0.84 95.69,-1.88 143.88,-3.15 176.64,-4.67 356.81,-12.61 529.23,-24.69 -20.53,37.62 -40.33,75.87 -58.67,113.96 -58.9,122.16 -102.68,242.39 -144.3,369.57 -41.6,127.21 -80.94,261.4104 -102.69,364.2804 -21.72,102.9 -25.85,174.6 -27.36,249.24 -1.53,74.64 -0.55,152.32 17.2,216.98 17.76,64.67 52.1,116.31 93.98,148.27 41.86,32.05 91.31,44.35 140.71,41.49 49.45,-2.86 98.82,-21.01 139.57,-43.68 40.71,-22.65 72.89,-49.82 112.84,-89.38 39.95,-39.55 87.74,-91.39 122.48,-152.93 20.5,-36.19 36.51,-75.72 49.74,-108.45 9.23,-22.86 17.14,-42.41 24.31,-55.17 17.41,-31.03 30.38,-22.01 43.05,-2.99 3.25,4.85 6.48,10.35 9.95,16.22 10.13,17.25 22.22,37.79 42.23,55.01 26.9,23.15 68.13,40.35 110.59,44.53 42.47,4.21 86.12,-4.71 133.51,-44.71 15.33,-12.92 31.05,-29.11 46.19,-47.13 -3.22,17.03 -6.01,33.79 -8.3,49.98 -10.29,73.05 -10.08,134.38 -6.25,186.3 3.87,51.96 11.43,94.56 31.04,129.06 19.61,34.5 51.25,60.88 92.45,69.45 41.22,8.5 91.86,-0.87 141.36,-24.44 49.53,-23.61 97.77,-61.49 141.29,-101.5 43.55,-40 82.36,-82.15 114.54,-118.11 32.15,-35.96 57.73,-65.72 81.41,-99.09 14.05,-19.82 27.42,-40.88 39.55,-61.96 -25.79,85.57 -42.32,152.64 -57.73,217.09 -16.67,69.59 -32.04,136.1 -43.07,208.2 -11.09,72.13 -17.94,149.81 -13.63,227.91 4.26,78.08 19.61,156.58 43.95,223.44 24.32,66.86 57.55,121.95 104.46,171.27 46.86,49.32 107.42,92.92 189.15,116.71 81.76,23.78 184.7,27.83 270.11,19.52 85.41,-8.31 153.33,-28.97 211.54,-57.28 58.23,-28.31 106.81,-64.27 148.53,-108.32 41.75,-44 76.76,-96.1 105.36,-154.99 28.58,-58.9 50.77,-124.62 59.74,-190.74 8.97,-66.15 4.71,-132.74 -16.88,-193.54 -21.61,-60.75 -60.48,-115.79 -101.15,-154.65 -19.75,-18.9 -39.92,-34 -61.22,-46.07 12.2,-0.4 24.2,-1.01 35.82,-1.8 52.92,-3.57 98.03,-10.69 138.78,-25.37 40.74,-14.68 77.23,-36.83 119.43,-65.06 42.2,-28.26 90.12,-62.63 127.74,-97.31 37.55,-34.69 64.72,-69.72 89.78,-104.49 25.05,-34.69 47.91,-69.03 68.6596,-103 16.35,-26.8 31.4,-53.39 44.92,-77.29 3.6,-6.4 7.12,-12.59 10.51,-18.54 1.56,-2.75 3.12,-5.45 4.63,-8.13 14.04,-24.58 25.74,-45.03 31.85,-63.39 6.77,-20.4 6.77,-38.29 -3.91,-32.89 h 0.05 c -9.37,4.69 -26.78,26.91 -51.17,58.08 -3.65,4.65 -7.46,9.52 -11.43,14.55 -30.43,38.6 -69.7696,87.26 -111.5796,133.8 -41.88,46.51 -86.2,90.83 -133.06,131.26 -46.85,40.4 -96.22,76.89 -142.37,102.66 -46.11,25.8 -89.06,40.82 -124.46,49 -35.43,8.23 -63.34,9.63 -88,6.43 -24.66,-3.18 -46.12,-11.09 -67.6,-26.12 -21.46,-15 -42.94,-37.2 -57.94,-59 -15.03,-21.8 -23.6,-43.28 -30.38,-73.31 -6.77,-30.03 -11.82,-68.66 -13.23,-105.15 -1.45,-36.49 0.74,-70.85 6.46,-105.14 5.71,-34.35 15,-68.64 21.46,-89.46 6.45,-20.72 10.02,-27.91 15.74,-32.15 5.71,-4.34 13.57,-5.71 30.77,-3.6 10.37,1.27 24.16,3.92 41.88,7.28 11.62,2.2 24.9,4.74 40.01,7.41 38.28,6.77 88.32,14.68 133.77,13.23 45.41,-1.4 86.2,-12.17 133.06,-29.71 46.86,-17.55 99.83,-41.86 142.69,-66.2 42.94,-24.32 75.83,-48.66 100.17,-84.8004 24.32,-36.09 40.06,-84.09 48.24,-125.55 8.25,-41.46 8.99,-76.57 3.59,-104.48 -5.37,-27.91 -16.8,-48.63 -32.57,-70.12 -15.74,-21.45 -35.74,-43.65 -63.65,-59.34 -27.92,-15.74 -63.69,-25.06 -100.89,-30.03 -37.23,-5 -75.83,-5.72 -118.03,-0.4 -42.2,5.37 -88,16.8 -130.55,32.15 -42.59,15.42 -81.86,34.71 -123.4,60.08 -41.48,25.4 -85.14,56.89 -123.03,89.8 -37.94,32.89 -70.11,67.26 -98.37,105.94 -28.23,38.69 -52.55,81.81 -73.37,124.07 -20.72,42.2804 -38.02,83.7404 -50.17,124.0904 -12.17,40.35 -19.28,79.56 -24.26,114.19 -4.97,34.61 -7.83,64.66 -9.05,99.7 -1.11,35 -0.58,74.95 4.08,115.35 4.63,40.41 13.41,81.36 34.61,119.3 21.22,37.95 54.84,73.06 92.71,98.43 8.53,5.72 17.27,10.94 26.3,15.7 l -1.96,0.25 c -54.91,7.17 -105.89,25.4 -147.48,52.18 -41.62,26.78 -73.85,62.15 -89.72,102.82 -15.83,40.74 -15.3,86.78 -6.86,114.91 8.39,28.17 24.58,38.41 35.3,39.68 10.69,1.25 15.82,-6.4 16.67,-19.6 0.87,-13.23 -2.52,-32.04 -1.25,-52.05 1.25,-20.08 7.23,-41.4 24.11,-68.92 16.9,-27.52 44.74,-61.22 77.57,-82.95 32.84,-21.72 70.78,-31.64 109.33,-35.21 38.55,-3.65 77.81,-1.06 109.85,5.31 32.05,6.38 56.76,16.62 87.26,36.54 30.51,19.95 66.73,49.59 94.86,98.43 28.1,48.87 48.05,116.97 46.06,191.03 -1.93,74.03 -25.87,154.04 -62.55,223.36 -36.69,69.32 -86.28,127.95 -152.05,172.14 -65.8,44.18 -147.96,74.03 -220.66,87.47 -72.71,13.49 -135.97,10.56 -195.88,-2.07 -59.87,-12.7 -116.28,-35.24 -166.87,-75.24 -50.59,-40.01 -95.25,-97.55 -122.69,-166.82 -27.43,-69.19 -37.67,-149.99 -37.67,-235.59 0,-85.62 10.24,-176.13 33.28,-274.69 23.07,-98.56 58.9,-205.24 96.05,-319.14 37.09,-113.93 75.48,-235.13 169.81,-461.3 94.29,-226.1704 244.5,-557.2904 336.68,-756.1304 l 13.76,-29.61 c 43.8,3.06 86.58,7.01 125.96,10.99 85.01,8.57 154.12,17.22 231.22,30.9 77.05,13.71 162.03,32.44 247.79,45.4 85.72,12.97 172.1096,20.14 252.0596,15.08 79.96,-4.97 153.46,-22.25 222.6,-50.37 69.11,-28.05 133.98,-66.99 172.14,-101.55 38.2,-34.55 49.69,-64.88 58.34,-90.06 8.65,-25.19 14.42,-45.33 10.1,-69.85 -4.31,-24.53 -18.75,-53.29 -31.69,-67 -12.97,-13.67 -24.48,-12.22 -30.99,-5.05 -6.5,7.2 -7.96,20.14 -24.52,47.52 -16.54,27.38 -48.24,69.14 -107.34,109.46 -59.01,40.35 -145.47,79.24 -247.02,92.92 -101.57,13.71 -218.2496,2.12 -346.4696,-13.68 -128.19,-15.82 -267.97,-36.04 -412.72,-44.66 -25.12,-1.5 -50.39,-2.65 -75.67,-3.46 50.75,-107.24 75.26,-154.94 95.64,-194 26.94,-51.65 46.54,-88.34 63.61,-111.79 17.09,-23.46 31.56,-33.7 43.52,-40.53 11.99,-6.85 21.35,-10.24 22.2,-17.09 l 0.13,0.05 c 0.88,-6.83 -6.82,-17.07 -22.2,-26.83 -15.34,-9.84 -38.39,-19.21 -59.74,-21.75 -21.32,-2.59 -40.93,1.75 -60.62,9.37 -19.6,7.73 -39.26,18.76 -56.75,34.98 -17.46,16.22 -32.83,37.54 -52.89,76.36 -20.08,38.81 -44.79,95.17 -84.96,178.78 -16.01,33.37 -34.45,71.1 -54.36,112.07 -62.5,1.76 -122.84,5.69 -178.55,11.75 -125.99,13.68 -228.28,38.13 -341.39,77.73 -113.14,39.64 -237.01,94.33 -315.49,130.34 v 0.08 c -78.5,36.01 -111.65,53.28 -128.96,77.1 -17.28,23.78 -18.73,54.03 -15.13,72.04 3.57,18 12.22,23.79 26.64,17.28 14.37,-6.46 34.56,-25.19 59.74,-43.95 25.19,-18.73 55.51,-37.41 102.29,-61.94 46.86,-24.44 110.25,-54.68 196.27,-84.53 86.07,-29.77 194.73,-59.16 291.23,-78.55 92.06,-18.54 173.11,-27.91 260.77,-29.12 -17.67,36.97 -35.89,75.66 -54.11,115.45 -55.51,121.15 -110.91,252.62 -163.03,379.76 -52.05,127.13 -100.68,250.08 -145.47,370.7804 -23.23,62.61 -45.42,124.65 -65.52,183.2 -3.84,2.94 -8.83,7.79 -15.15,14.53 -14.24,15.16 -35.03,39.74 -56.84,67.65 -21.72,27.91 -44.45,59.16 -75.69,94.64 -31.22,35.51 -70.96,75.25 -110.25,108.88 -39.29,33.63 -78.08,61.01 -106,74.29 -27.91,13.23 -44.95,12.31 -59.63,-0.92 -14.69,-13.23 -26.99,-38.82 -32.63,-68.58 -5.66,-29.8 -4.71,-63.87 5.19,-112.13 9.97,-48.26 28.84,-110.73 56.75,-181.24 27.92,-70.52 64.8,-149.07 99.35,-218.13 34.58,-69.1304 66.73,-128.7404 94.2,-173.1904 27.43,-44.48 50.16,-73.85 66.25,-96.97 16.08,-23.21 25.53,-40.22 -5.19,-49.24 l -0.05,-0.13 c -30.77,-9 -101.76,-9.93 -142.9,-7.12 -41.15,2.86 -52.5,9.44 -74.77,32.62 -22.26,23.21 -55.36,62.95 -91.31,117.37 -35.96,54.43 -74.77,123.48 -107.08,183.9104 -32.3,60.41 -58.15,112.11 -81.41,180.37 -4.9,14.39 -9.69,29.51 -14.29,45.09 -13.65,20.54 -29.04,39.35 -47.78,58.18 -28.79,28.92 -65.46,57.83 -98.37,75.16 -32.97,17.31 -62.13,22.94 -92.37,0.27 -30.24,-22.73 -61.54,-73.77 -73.11,-127.27 -6.82,-31.69 -6.72,-64.26 -6.64,-99.72 0.08,-24.37 0.16,-50.08 -2.01,-77.78 -5.37,-67.92 -24.31,-147.8304 -51.38,-190.0304 -27.04,-42.2 -62.2,-46.64 -94.24,-28.97 -32.02,17.67 -60.94,57.55 -71.97,107.8704 -11.03,50.3 -4.13,111.13 8.49,160.97 4.71,18.42 10.19,35.35 15.48,51.73 9.05,27.94 17.57,54.26 20.74,83.58 5,46.51 -3.44,100.75 -24.63,149.46 -21.14,48.79 -54.98,92.05 -94.19,120.57 -39.13,28.53 -83.74,42.26 -116.71,45.86 -32.97,3.6 -54.34,-2.99 -75.03,-23.6 -20.67,-20.59 -40.54,-55.14 -55.04,-89.78 -14.47,-34.55 -23.52,-69.19 -29.95,-113.19 -6.45,-44 -10.32,-97.36 -8.65,-147.13 1.67,-49.8 8.84,-95.91 19.29,-134.65 l 0.13,0.14 c 10.48,-38.77 24.24,-70.07 41.12,-95.78 16.96,-25.6704 36.96,-45.7204 72.04,-80.1504 3.02,-2.96 6.17,-6.03 9.4,-9.2 34.34,-33.69 80.22,-78.66 127.13,-127.32 51.35,-53.24 103.93,-110.86 160.97,-174.73 56.94,-63.87 118.35,-133.99 173.46,-204.15 36.93,-47 71.05,-94.04 100.28,-141.25 164.46,-28.34 320.6,-65.96 493.05,-119.24 256.01,-79.08 547.98,-192.72 783.11,-327.89 235.14,-135.21 413.52,-291.97 540.07,-436.54 126.55,-144.54 201.37,-276.86 242.31,-396.96 41.01,-120.09 48.2,-227.96 44.6,-330.12 -3.59,-102.15 -17.93,-198.46 -53.23,-286.91 -35.22,-88.45 -91.31,-169.02 -167.56,-245.96 -76.23,-76.96 -172.59,-150.33 -275.4,-202.77 -102.82,-52.52 -212.15,-84.14 -341.61,-108.62 -129.46,-24.44 -279,-41.72 -426.43,-49.63 -147.4,-7.91 -292.68,-6.46 -452.33,10.11 -159.62,16.53 -333.61,48.18 -560.92,99.21 -227.22,51.04 -507.7,121.5 -731.33,180.5 -223.65,58.95 -390.47,106.42 -615.58,179.05 -225.08,72.65 -508.42,170.42 -736.84,247.25 -228.44,76.81 -402.03,132.64 -582.32,184.49 -180.31,51.84 -367.48,99.7 -556.76,141.03 -189.29,41.33 -380.74,76.17 -564.04,97.89 -183.3,21.73 -358.43,30.46 -515.67,13.63 -157.19,-16.88 -296.42,-59.29 -399.5,-107 -103.08,-47.73 -169.94,-100.75 -217.8,-157.45 -47.84,-56.7 -76.63,-117.11 -90.99,-179.65 -14.34,-62.53 -14.34,-127.27 0.74,-194.18 15.08,-66.86 45.32,-135.92 97.84,-220.8 52.49,-84.87 127.26,-185.55 251.67,-307.05 55.55,-54.28 121.01,-112.7 191.22,-170.67 l 16.08,-7.58 c 108.11,-50.56 263.71,-115.88 458.23,-178.91 194.55,-63.07 427.94,-123.74 759.39,-186.74 331.44,-63.08 760.99,-128.4 1125.85,-170.42 364.86,-41.99 665.22,-60.75 966.07,-55.69 300.89,5 602.35,33.71 850.45,71.78 248.16,38.07 442.94,85.46 597.14,147.29 154.2,61.81 267.79,138.09 350.18,222.17 82.49,84.06 133.72,175.92 161.18,216.46 27.44,40.53 31.09,29.76 31.83,12.35 l 0.03,-0.92 c 7.3,8.8 15.96,11.67 23.76,0.18 l 0.39,0.48 c 12.25,-18.02 22.34,-71.17 37.44,-127.26 15.08,-56.1 35.22,-115.05 63.26,-183.39 28.05,-68.31 64.01,-145.99 97.11,-218.57 33.1,-72.65 63.26,-140.23 81.28,-208.57 18.01,-68.32 23.73,-137.37 10.77,-199.18 -12.97,-61.86 -44.61,-116.49 -99.22,-162.48 -54.64,-46.01 -132.35,-83.42 -248.1,-116.52 -115.78,-33.1 -269.72,-61.86 -468.9,-84.14 -199.18,-22.25 -443.68,-38.15 -633.57,-44.58 -106.66,-3.68 -196.1,-4.36 -294.31,-2.71 z m 1501.1,4354.58 c 75.62,0 136.92,-61.31 136.92,-136.93 0,-75.61 -61.3,-136.92 -136.92,-136.92 -75.62,0 -136.89,61.31 -136.89,136.92 0,75.62 61.27,136.93 136.89,136.93 z m -792.39,-597.79 c -75.25,15.49 -150.53,28.81 -226.73,40.84 l 9.66,-17.28 c 36.35,-64.48 70.19,-118.37 98.95,-152.8 28.79,-34.42 52.65,-49.45 72.66,-56.96 20.05,-7.52 36.35,-7.52 48.23,3.12 11.91,10.64 19.42,31.96 18.15,70.78 -0.93,28.38 -6.52,66.03 -20.92,112.3 z m -340.35,258.66 c 48.27,-4.56 95.48,-9.51 141.35,-14.86 29.62,-3.46 58.68,-7.09 87.29,-10.92 -12.76,21.22 -26.06,42.4 -39.64,63.17 -53.23,81.42 -110.86,156.58 -180.37,237.34 -69.5,80.8 -150.86,167.21 -187.22,192.27 v -0.08 c -36.3,25.06 -27.51,-11.22 -6.24,-66.99 21.27,-55.75 55.09,-130.92 89.51,-204.18 30.97,-65.83 62.44,-130.21 95.32,-195.75 z m 1986.37,725.3104 c -4.92,-15.53 -4.47,-35.16 1.85,-58.2904 6.38,-23.04 18.6,-49.63 31.51,-72.36 12.89,-22.73 26.38,-41.54 41.33,-60.54 14.9,-19.02 31.3,-38.23 50.51,-58.68 19.21,-20.48 41.35,-42.15 62.81,-58.9 21.46,-16.75 42.34,-28.65 64.8,-39.87 22.54,-11.25 46.64,-21.88 68.71,-28.65 22.07,-6.73 42.15,-9.58 60.75,-8.58 18.6,1.06 35.77,5.98 48.84,14.77 13.1,8.75 22.15,21.45 27.47,37.81 5.31,16.35 6.9,36.35 4.04,56.22 -2.85,19.82 -10.24,39.48 -20.66,61.14 -10.45,21.67 -23.92,45.41 -39.48,68.93 -15.55,23.52 -33.1,46.86 -55.82,68.71 -22.73,21.88 -50.51,42.3304 -78.96,60.3504 -28.44,17.94 -57.49,33.5 -84.48,43.92 -26.98,10.45 -51.91,15.69 -77.89,16.96 -25.98,1.27 -52.97,-1.58 -71.57,-8.78 -18.63,-7.17 -28.84,-18.6 -33.76,-34.16 z m -4437.11,142.47 c -7.67,9.27 -16.65,20.71 -26.84,33.72 -3.65,4.65 -7.46,9.52 -11.43,14.55 -30.42,38.63 -69.77,87.26 -111.57,133.8 -41.89,46.51 -86.2,90.86 -133.06,131.26 -46.86,40.4 -96.23,76.89 -142.35,102.68 -46.14,25.77 -89.06,40.8 -124.48,48.98 -35.43,8.23 -63.34,9.63 -88,6.45 -24.66,-3.2 -46.12,-11.11 -67.6,-26.14 -21.46,-15 -42.92,-37.2 -57.95,-59 -15.03,-21.8 -23.6,-43.26 -30.37,-73.32 -6.78,-30.03 -11.83,-68.65 -13.23,-105.14 -1.46,-36.49 0.74,-70.83 6.45,-105.12 5.72,-34.37 15.03,-68.66 21.46,-89.46 6.46,-20.74 10.03,-27.91 15.77,-32.17 5.72,-4.34 13.55,-5.71 30.77,-3.6 10.35,1.3 24.13,3.92 41.86,7.28 11.61,2.2 24.9,4.74 40,7.41 38.29,6.77 88.35,14.68 133.8,13.23 45.38,-1.41 86.21,-12.17 133.06,-29.72 46.83,-17.54 99.8,-41.85 142.69,-66.19 42.92,-24.32 75.83,-48.64 100.15,-84.8 24.31,-36.0904 40.08,-84.0604 48.26,-125.5504 8.23,-41.46 8.97,-76.54 3.57,-104.46 -5.37,-27.91 -16.8,-48.65 -32.57,-70.14 -15.74,-21.45 -35.75,-43.65 -63.66,-59.34 -27.91,-15.75 -63.66,-25.06 -100.89,-30.03 -37.22,-4.98 -75.82,-5.72 -118.03,-0.4 -42.2,5.37 -88,16.8 -130.54,32.17 -42.6,15.4 -81.86,34.69 -123.4,60.06 -41.49,25.4 -85.15,56.92 -123.03,89.8 -37.95,32.89 -70.12,67.26 -98.35,105.94 -28.26,38.68 -52.57,81.81 -73.37,124.0904 -20.56,41.89 -37.72,83.01 -49.87,123.01 -12.36,3.61 -24.26,11.09 -35.91,21.93 -20.87,19.42 -41.01,49.66 -60.43,71.17 -19.39,21.62 -38.15,34.51 -65.46,41.01 -27.3,6.46 -63.26,6.46 -97.84,-7.17 -34.47,-13.68 -67.57,-41.01 -82.65,-76.22 -15.11,-35.22 -12.25,-78.37 0.71,-117.9 12.96,-39.56 35.96,-75.51 54.64,-125.8904 18.68,-50.3 33.1,-115.04 37.41,-172.59 4.34,-57.57 -1.46,-107.87 -12.23,-138.03 -10.76,-30.19 -26.59,-40.3 -49.63,-41.67 -22.99,-1.48 -53.24,5.71 -84.88,23.7 -31.64,18.02 -64.74,46.81 -86.99,87 -22.28,40.3 -33.84,92.05 -35.96,140.25 -2.2,48.19 5.05,92.77 10.03,130.13 5.05,37.4104 7.91,67.5704 3.59,97.1004 -4.31,29.5 -15.82,58.29 -38.15,102.82 -22.25,44.58 -55.35,104.98 -93.5,162.48 -38.15,57.57 -81.28,112.18 -123.69,150.33 -42.47,38.16 -84.14,59.69 -120.84,70.46 -36.67,10.77 -68.31,10.77 -91.31,-7.17 -22.99,-17.96 -37.41,-53.92 -43.12,-98.5 -5.8,-44.61 -2.86,-97.85 10.76,-157.51 13.68,-59.69 38.08,-125.81 65.46,-194.87 27.31,-69.05 57.55,-140.9704 88.45,-201.3704 30.91,-60.43 62.55,-109.33 87.74,-143.83 25.19,-34.5 43.87,-54.63 5.05,-64.74 -38.81,-10.03 -135.17,-10.03 -193.46,0 -58.24,10.05 -78.42,30.19 -109.33,71.2 -30.9,40.98 -72.65,102.79 -107.87,168.99 -35.21,66.2004 -64,136.6604 -98.5,204.9704 -34.48,68.32 -74.77,134.46 -110.73,189.15 -35.93,54.64 -67.58,97.82 -102.78996,135.18 -35.24,37.41 -74.11,69.05 -111.47,81.28 -37.41,12.22 -73.37,5.05 -91.31,-30.24 -18.02,-35.22 -18.02,-98.48 1.46,-187.67 19.39,-89.19 58.21,-204.24 99.96,-300.62 41.67,-96.3604 86.25,-173.9904 143.81996,-243.0504 57.55,-69.06 128.01,-129.46 230.8,-187.67 102.82,-58.23 238.07,-114.32 348.06,-152.48 110.01,-38.07 194.87,-58.21 291.25,-71.91 96.36,-13.68 204.23,-20.85 321.47,-21.59 117.24,-0.74 243.76,5.05 440.82,9.36 197.07,4.34 464.56,7.2 751.47,5.8 286.92,-1.46 593.31,-7.2 890.99,-9.37 140.31,-1.03 278.72,-1.26 417.18,-2.03 -63.67,147.33 -126.38,297.73 -186.76,445.18 -85.83,209.6904 -166.89,413.3804 -242.64,613.6204 -31.28,32.69 -63.84,63.96 -97.74,93.19 -46.86,40.43 -96.23,76.92 -142.38,102.69 -46.11,25.79 -89.03,40.82 -124.45,49 -35.43,8.23 -63.35,9.63 -88.01,6.43 -24.65,-3.18 -46.11,-11.09 -67.6,-26.12 -21.45,-15.03 -42.91,-37.23 -57.94,-59.03 -15.03,-21.77 -23.6,-43.26 -30.37,-73.29 -6.78,-30.05 -11.83,-68.66 -13.23,-105.14 -1.46,-36.49 0.74,-70.86 6.45,-105.15 5.72,-34.37 15,-68.66 21.46,-89.45 6.46,-20.75 10.03,-27.92 15.74,-32.18 5.72,-4.31 13.58,-5.71 30.77,-3.57 10.38,1.27 24.16,3.89 41.89,7.28 11.61,2.19 24.89,4.71 40,7.41 38.29,6.77 88.32,14.68 133.8,13.23 45.38,-1.41 86.2,-12.18 133.03,-29.72 46.86,-17.54 99.83,-41.88 142.69,-66.2 42.95,-24.31 75.86,-48.65 100.18,-84.79 24.31,-36.0904 40.08,-84.0904 48.26,-125.5504 8.22,-41.49 8.97,-76.57 3.57,-104.48 -5.37,-27.92 -16.8,-48.66 -32.57,-70.12 -15.75,-21.46 -35.75,-43.65 -63.66,-59.34 -27.92,-15.75 -63.66,-25.06 -100.89,-30.03 -37.22,-5 -75.83,-5.75 -118.03,-0.43 -42.2,5.4 -88,16.83 -130.54,32.18 -42.6,15.42 -81.87,34.68 -123.4,60.08 -41.49,25.4 -85.15,56.89 -123.04,89.8 -37.94,32.89 -70.11,67.26 -98.34,105.94 -28.26,38.68 -52.57,81.8104 -73.4,124.0604 -20.71,42.28 -37.99,83.75 -50.16,124.09 -1.04,3.46 -2.04,6.9 -3.01,10.34 z m 331.36,-82.91 c -4.9,-15.56 -4.45,-35.16 1.87,-58.29 6.38,-23.07 18.6,-49.63 31.49,-72.3604 12.91,-22.76 26.41,-41.54 41.35,-60.57 14.87,-18.99 31.3,-38.2 50.51,-58.68 19.21,-20.48 41.33,-42.12 62.82,-58.87 21.45,-16.75 42.33,-28.65 64.79,-39.9 22.52,-11.22 46.65,-21.85 68.71,-28.63 22.07,-6.72 42.15,-9.57 60.75,-8.57 18.6,1.06 35.75,5.98 48.84,14.74 13.1,8.78 22.15,21.48 27.47,37.83 5.32,16.35 6.9,36.36 4.05,56.23 -2.86,19.79 -10.24,39.47 -20.67,61.14 -10.45,21.67 -23.94,45.38 -39.47,68.93 -15.56,23.52 -33.1,46.8304 -55.83,68.7104 -22.75,21.85 -50.54,42.33 -78.98,60.35 -28.44,17.94 -57.47,33.5 -84.45,43.92 -26.99,10.43 -51.92,15.69 -77.9,16.96 -25.98,1.24 -52.97,-1.61 -71.59,-8.78 -18.6,-7.17 -28.84,-18.6 -33.76,-34.16 z m -1006.03,-18.73 c -4.92,-15.56 -4.44,-35.17 1.85,-58.29 6.38,-23.07 18.63,-49.6604 31.51,-72.3904 12.89,-22.73 26.38,-41.54 41.33,-60.54 14.9,-19 31.33,-38.2 50.51,-58.68 19.21,-20.48 41.36,-42.12 62.81,-58.87 21.49,-16.75 42.34,-28.66 64.8,-39.9 22.54,-11.22 46.67,-21.86 68.74,-28.63 22.06,-6.72 42.12,-9.58 60.75,-8.57 18.6,1.06 35.74,5.98 48.84,14.74 13.1,8.78 22.12,21.48 27.44,37.83 5.31,16.35 6.9,36.35 4.04,56.22 -2.85,19.8 -10.21,39.48 -20.66,61.15 -10.42,21.67 -23.92,45.38 -39.48,68.9 -15.55,23.55 -33.09,46.85 -55.82,68.7404 -22.73,21.85 -50.51,42.33 -78.95,60.35 -28.45,17.94 -57.5,33.49 -84.49,43.92 -26.96,10.42 -51.88,15.69 -77.89,16.96 -25.98,1.24 -52.97,-1.62 -71.57,-8.79 -18.6,-7.17 -28.84,-18.6 -33.76,-34.15 z m 1962.25,-5975.9304 c -110.82,47.12 -207.61,120.84 -282.33,213.15 -106.75,-83.67 -237.38,-138.24 -379.97,-151.8 1.98,-6.73 3.97,-14.07 5.95,-22.07 11.7,-47.51 23.39,-118.03 40.54,-194.65 17.14,-76.7 39.69,-159.52 62.28,-239 22.52,-79.48 45.11,-155.7 73.37,-227.22 28.26,-71.52 62.07,-138.38 100.7,-207.49 38.52,-69.19 81.81,-140.7 132.64,-207.48999 50.85,-66.8 109.14,-128.94 155.25,-173.6 46.12,-44.73 80.01,-71.98 105.41,-88.92 25.4,-16.95 42.34,-23.53 54.56,-24 12.23,-0.46 19.74,5.19 24.48,10.37 4.63,5.19 6.56,9.84 1.85,19.27 -4.71,9.44 -16.01,23.53 -27.78,39.55 -11.78,15.95 -24,33.83 -43.74,75.23 -19.74,41.41 -47.04,106.34 -66.78,168.41 -19.74,62.07999 -31.99,121.35999 -41.41,190.07999 -9.44,68.65 -16.03,146.76 -17.41,222.98 -1.4,76.23 2.38,150.52 8.5,213.15 6.11,62.6 14.63,113.38 26.85,165.6 12.22,52.18 28.26,105.81 40.93,145.37 10.18,31.63 18.22,54.21 26.11,73.08 z m -982.47,473.65 c -77.21,77.23 -185.69,93.93 -242.28,37.33 -56.59,-56.59 -39.9,-165.07 37.33,-242.28 77.21,-77.2 185.69,-93.92 242.28,-37.33 56.6,56.6 39.87,165.08 -37.33,242.28 z"
   id="path4"
   style="clip-rule:evenodd;opacity:1;fill:#000000;fill-opacity:1;fill-rule:evenodd;filter:url(#filter4);image-rendering:optimizeQuality;shape-rendering:geometricPrecision;text-rendering:geometricPrecision" /><path
   class="fil0"
   d="m 5553.6564,3200.9416 c 135.8594,-132.5393 220.2289,-317.6184 220.2289,-522.4073 0,-403.068 -326.7583,-729.7963 -729.7963,-729.7963 -82.5395,0 -161.8691,13.7199 -235.8588,38.9698 0.01,-13.9099 -2.6699,-23.1899 -7.3499,-40.2398 -5.58,-20.6599 -14.07,-52.6297 -26.3199,-94.5095 -12.2299,-41.8598 -28.1798,-93.6396 -37.1498,-155.2292 -8.97,-61.6997 -10.8199,-133.1894 -9.9,-200.449 0.93,-67.3397 4.71,-130.4094 12.7,-192.929 8.0499,-62.5497 20.2699,-124.6294 33.4198,-187.6991 13.1799,-63.0097 27.3299,-127.00932 47.0698,-184.88903 19.7899,-57.88971 45.1897,-109.59944 68.2396,-144.41927 23.0699,-34.82982 43.8098,-52.70973 58.3597,-61.14968 14.61,-8.50996 23.0499,-7.56997 27.3099,1.39999 4.18,8.89995 4.18,25.84987 1.88,43.25978 -2.41,17.41991 -7.12,35.22982 -9.45,56.42971 -2.41,21.19989 -2.41,45.65977 7.51,76.22961 9.8199,30.63985 29.6398,67.31966 55.4897,104.46949 25.8499,37.1598 57.8097,74.8396 98.2895,112.4594 40.3998,37.6098 89.3996,75.2996 139.6993,112.4494 50.3197,37.2198 102.0995,73.8897 143.9593,104.4795 41.9398,30.6398 73.8996,55.0297 98.3695,75.7696 24.4498,20.6699 41.3298,37.5998 51.2297,55.9597 9.92,18.3399 12.6999,38.0798 16.0299,49.3698 3.31,11.2999 7.04,14.0799 10.82,11.2999 3.78,-2.8 7.5199,-11.2999 12.6999,-37.1498 5.19,-25.8499 11.7799,-69.1796 17.4099,-119.0294 5.66,-49.8497 10.37,-106.3394 8.97,-160.4392 -1.4,-54.1697 -8.97,-105.8694 -21.6699,-152.9292 -12.67,-47.0498 -30.5599,-89.38953 -59.2697,-134.1093 -28.6999,-44.72977 -68.2597,-91.78953 -116.2494,-135.97931 -47.9698,-44.26977 -104.4095,-85.60956 -156.1892,-113.38942 -51.6998,-27.70986 -98.7395,-41.86979 -131.7094,-49.37975 -32.9098,-7.56996 -51.7197,-8.49996 -62.0696,-10.35995 -10.37,-1.92999 -12.25,-4.71997 -10.85,-9.43995 1.41,-4.71998 6.12,-11.29994 13.1799,-21.66989 7.04,-10.36995 16.48,-24.45988 17.86,-37.14981 1.3999,-12.75994 -5.19,-24.05988 -16.01,-32.49984 -10.7699,-8.50995 -25.8498,-14.14992 -50.3197,-14.61992 -24.4499,-0.47 -58.3397,4.24998 -118.0894,28.23985 -59.7597,23.99988 -145.3593,67.25966 -244.1788,143.49927 -98.7695,76.21962 -210.7389,185.34906 -299.6684,313.81841 -88.9196,128.46931 -154.7793,276.20861 -208.569,458.97761 -53.7597,182.7791 -95.4295,400.638 -114.6894,518.7174 l 0.13,0.34 c -7.67,46.9598 -11.8099,78.1396 -13.5799,99.4895 l -8.91,-0.06 c -403.0379,0 -729.7963,326.7383 -729.7963,729.7963 0,247.8187 123.5494,466.7476 312.3884,598.6569 -116.2994,23.7099 -226.9388,50.2598 -365.9381,91.6696 -202.779,60.3997 -466.0376,152.4492 -680.2965,243.0387 -214.2589,90.5996 -379.6981,179.7891 -569.5171,298.3985 -189.8591,118.6394 -404.148,266.7787 -550.1372,391.928 -146.0293,125.1494 -223.6589,227.2189 -297.8985,332.9783 -74.2096,105.7195 -144.9393,215.0489 -180.88907,331.2283 -35.95981,116.1195 -37.01981,239.0788 -14.55992,342.6083 22.46988,103.5595 68.39959,187.689 151.04919,273.5486 82.6896,85.9396 202.069,173.6691 348.0082,227.6189 68.1397,25.1598 142.0493,42.9697 220.2989,55.6797 215.5489,50.2397 528.8073,97.3995 773.3161,116.5394 270.6086,21.1899 457.0376,-1.4747 640.6567,-19.5946 183.6491,-18.1499 363.3089,-37.8218 598.0977,-78.9616 234.8188,-41.1097 523.5273,-100.2794 845.3157,-177.1591 321.8083,-76.9196 677.9558,-172.7384 999.7642,-244.888 321.7783,-72.1796 608.1383,-121.8394 862.477,-140.7893 254.3487,-18.9399 478.0155,-8.2693 642.4246,27.2106 164.4392,35.4798 277.1127,100.403 343.3924,203.3425 66.2497,102.9494 89.8995,252.9743 66.2497,410.3435 -23.6499,157.3792 -95.4734,326.2222 -168.8431,455.1516 -26.6498,46.8397 -57.7992,86.8517 -84.1191,123.9015 -90.8695,41.6298 -186.389,80.4596 -288.1885,117.6894 -151.6792,55.4498 -317.3284,107.2195 -484.1575,148.4093 2.6299,-9.67 5.0299,-19.1099 7.2499,-28.2699 14.42,-59.4697 20.6599,-107.0494 15.6899,-144.0092 -4.9999,-36.9599 -21.2798,-63.2597 -41.3597,-80.8296 -19.9999,-17.5399 -43.8698,-26.2999 -75.7497,-26.2999 -31.9898,0 -72.0396,8.76 -121.4993,28.8399 -49.4498,20.0599 -108.3395,51.3797 -165.3592,103.9594 -56.9597,52.6198 -112.0994,126.5194 -176.5791,225.4189 -5.27,8.0899 -10.6099,16.3499 -15.9899,24.7499 -39.3498,5.2799 -79.1096,10.4099 -119.3994,15.5199 -192.149,24.3399 -396.398,48.0897 -604.3969,60.7697 47.5597,-104.0795 92.0395,-200.709 131.1393,-285.0586 178.6491,-385.408 244.7687,-514.3974 296.8885,-614.4869 52.0997,-100.0894 90.1195,-171.2091 123.2194,-216.6689 33.0898,-45.4497 61.1896,-65.3196 84.3195,-78.5496 23.1499,-13.2299 41.3498,-19.8699 43.0198,-33.0998 l -0.13,0.18 c 1.64,-13.2299 -13.2299,-33.0998 -43.0198,-52.0897 -29.7698,-18.9999 -74.4296,-37.2298 -115.7594,-42.1998 -41.3498,-5.01 -79.4296,3.3 -117.4494,18.1999 -38.0198,14.8899 -76.0896,36.3498 -109.9894,67.7797 -33.8899,31.4398 -63.6797,72.7896 -102.5495,148.0092 -38.8698,75.2496 -86.8596,184.4391 -164.5392,346.5282 -77.7596,162.1092 -185.239,377.1081 -292.7585,611.9769 -21.1399,46.1498 -42.2698,93.0796 -63.3497,140.5493 -145.6492,1.62 -300.8584,0.22 -478.4075,-0.67 -291.9685,-1.45 -644.3367,-1.45 -921.1953,0.75 -276.8886,2.19 -478.1876,6.42 -699.7165,15.0799 -221.5088,8.65 -463.0976,21.5899 -673.0966,45.9798 -210.0289,24.4699 -388.328,60.4297 -563.0571,122.2394 -174.7291,61.8597 -345.9382,149.5892 -474.60753,247.3587 -128.71935,97.8395 -214.99891,205.679 -289.10853,323.5784 -74.07962,117.9298 -135.88931,245.9891 -165.41916,361.6885 -29.49985,115.7794 -26.55986,219.3389 -1.44999,291.2285 25.17987,71.9097 72.64963,112.1995 119.34939,127.2894 46.72976,15.0799 92.78953,5.05 151.73923,-24.4799 58.9497,-29.4998 130.85933,-78.3396 190.54903,-127.9993 59.65966,-49.6398 107.12946,-99.9395 135.17926,-138.7493 28.0399,-38.8198 36.6898,-66.1497 42.4098,-63.2897 5.71,2.86 8.62,35.9598 8.62,79.0796 0,43.1598 -2.85,96.3895 8.6599,141.6393 11.4799,45.3198 37.3298,82.7596 81.9396,104.2995 44.5798,21.5898 107.8694,27.2998 168.2691,25.1798 60.4097,-2.14 117.8994,-12.2499 174.7291,-42.4898 56.8398,-30.1598 112.9295,-80.5396 173.3292,-150.9992 60.4097,-70.4296 125.1493,-161.0992 164.6791,-222.9089 39.5498,-61.8596 53.9198,-94.8995 66.8597,-94.8995 12.9599,0 24.4699,33.0999 53.2297,66.1897 28.7899,33.0998 74.7696,66.1497 126.5494,74.7796 51.7797,8.65 109.3294,-7.17 152.4592,-21.5899 39.5198,-13.1599 66.9597,-25.1499 99.4895,-46.9597 -2.25,20.8599 -3.69,41.2497 -4.45,63.6996 -1.14,35.0399 -0.61,74.9597 4.04,115.3594 4.66,40.4298 13.4199,81.3596 34.6098,119.2994 21.2199,37.9698 54.8497,73.0497 92.7395,98.4295 37.8599,25.3999 80.1396,41.1398 131.6494,48.9998 51.4897,7.8299 112.3194,7.8299 165.2091,4.23 52.9198,-3.57 98.0295,-10.69 138.7693,-25.3699 40.7498,-14.6899 77.2396,-36.8298 119.4394,-65.0597 42.1998,-28.2598 90.1096,-62.5997 127.7394,-97.3195 37.5398,-34.6798 64.7396,-69.7096 89.7995,-104.4494 25.0499,-34.7199 47.9098,-69.0597 68.6297,-103.0295 15.4599,-25.2699 29.7098,-50.3598 42.6297,-73.1896 l -0.16,1.1399 c -4.9799,34.6399 -7.8399,64.6897 -9.0499,99.6995 -1.11,35.0299 -0.59,74.9797 4.07,115.3795 4.6599,40.3997 13.4199,81.3595 34.6098,119.2993 21.2199,37.9399 54.8497,73.0497 92.7395,98.4295 37.8598,25.3999 80.1396,41.1398 131.6494,48.9698 51.4897,7.86 112.3194,7.86 165.2091,4.26 52.9097,-3.6 98.0295,-10.69 138.7693,-25.3699 40.7498,-14.7099 77.2296,-36.8298 119.4294,-65.0897 30.0398,-20.0899 62.9697,-43.2897 93.0195,-67.4996 -74.0896,203.1689 -141.0193,399.2379 -190.939,561.1871 -57.0697,185.2291 -91.7795,325.8584 -124.0594,460.6377 -32.2498,134.7693 -62.0197,263.8386 -83.5595,403.6179 -21.5299,139.7493 -34.7599,290.2983 -26.4499,441.6373 8.2499,151.319 38.0198,303.499 85.1396,432.988 47.1197,129.509 111.5994,236.329 202.5089,331.968 90.9096,95.62 208.149,180.029 366.6082,226.169 158.4292,46.12 357.9481,54.03 523.4973,37.86 165.5492,-16.06 297.2085,-56.14 410.0479,-111.039 112.8694,-54.91 206.989,-124.62 287.9185,-209.949 80.9696,-85.33 148.7493,-186.209 204.179,-300.329 55.4297,-114.109 98.4295,-241.459 115.7594,-369.678 17.3499,-128.189 9.13,-257.199 -32.6798,-375.018 -41.7998,-117.7592 -117.1794,-224.3887 -195.999,-299.8183 -78.8196,-75.4296 -161.1092,-119.6694 -259.1387,-145.5992 -98.0195,-25.9299 -211.8689,-33.4499 -318.2084,-19.5499 -106.3394,13.8899 -205.2389,49.1797 -285.9085,101.0894 -80.6996,51.9098 -143.1593,120.4394 -173.7991,199.309 -30.6999,78.8996 -29.5799,168.229 -13.36,222.779 16.2899,54.559 47.7298,74.429 68.3897,76.889 20.6599,2.46 30.5598,-12.41 32.2298,-37.99 1.66,-25.669 -4.98,-62.019 -2.46,-100.919 2.46,-38.86 14.1,-80.1894 46.7998,-133.4991 32.7598,-53.2897 86.5995,-118.5594 150.3392,-160.7692 63.6597,-42.1998 137.1593,-61.2697 211.9289,-68.3096 74.7697,-7.07 150.8593,-2.06 212.879,10.2899 61.9896,12.4399 109.9894,32.2298 169.0691,70.8596 59.0797,38.5998 129.3293,96.0096 183.8291,190.7291 54.4297,94.6993 93.1095,226.6183 89.3295,370.1773 -3.79,143.57 -50.0397,298.609 -121.2394,432.988 -71.0896,134.39 -167.1291,247.969 -294.6885,333.639 -127.5793,85.679 -286.6985,143.429 -427.5878,169.549 -140.8893,26.11 -263.5287,20.53 -379.5681,-4 -116.0194,-24.58 -225.4288,-68.18 -323.3983,-145.81 -97.9495,-77.629 -184.5491,-189.149 -237.7288,-323.268 -53.1597,-134.109 -72.9696,-290.688 -72.9696,-456.638 0,-165.969 19.8699,-341.2875 64.5296,-532.3665 44.6598,-190.9991 114.1095,-397.748 186.1091,-618.6169 71.9596,-220.7689 146.3892,-455.6377 329.1583,-894.0254 123.1694,-295.3485 295.4985,-683.057 449.4777,-1022.4752 47.7398,-0.84 95.6895,-1.88 143.8793,-3.15 176.6391,-4.67 356.8082,-12.61 529.2273,-24.6899 -20.5299,37.6198 -40.3298,75.8696 -58.6697,113.9594 -58.8997,122.1594 -102.6795,242.3888 -144.2993,369.5681 -41.5998,127.2094 -80.9396,261.4091 -102.6894,364.2786 -21.7199,102.8995 -25.8499,174.5991 -27.3599,249.2387 -1.53,74.6396 -0.55,152.3192 17.1999,216.9789 17.7599,64.6697 52.0997,116.3094 93.9795,148.2693 41.8598,32.0498 91.3096,44.3497 140.7093,41.4898 49.4498,-2.86 98.8195,-21.0099 139.5693,-43.6798 40.7098,-22.6499 72.8896,-49.8198 112.8394,-89.3796 39.9498,-39.5498 87.7396,-91.3895 122.4794,-152.9292 20.4999,-36.1898 36.5098,-75.7196 49.7398,-108.4494 9.2299,-22.8599 17.1399,-42.4098 24.3098,-55.1698 17.4099,-31.0298 30.3799,-22.0098 43.0498,-2.9899 3.25,4.8499 6.48,10.3499 9.95,16.2199 10.1299,17.2499 22.2198,37.7898 42.2297,55.0097 26.8999,23.1499 68.1297,40.3498 110.5895,44.5298 42.4698,4.2099 86.1195,-4.71 133.5093,-44.7098 15.3299,-12.9199 31.0498,-29.1099 46.1898,-47.1298 -3.22,17.0299 -6.01,33.7899 -8.3,49.9798 -10.2899,73.0496 -10.0799,134.3793 -6.25,186.299 3.87,51.9598 11.43,94.5596 31.0399,129.0594 19.6099,34.4998 51.2497,60.8797 92.4495,69.4496 41.2198,8.5 91.8595,-0.87 141.3593,-24.4399 49.5297,-23.6098 97.7695,-61.4896 141.2893,-101.4994 43.5498,-39.9998 82.3596,-82.1496 114.5394,-118.1094 32.1498,-35.9599 57.7297,-65.7197 81.4096,-99.0895 14.0499,-19.8199 27.4198,-40.8798 39.5498,-61.9597 -25.7899,85.5695 -42.3198,152.6392 -57.7297,217.0889 -16.6699,69.5896 -32.0399,136.0993 -43.0698,208.1989 -11.09,72.1297 -17.9399,149.8093 -13.6299,227.9089 4.2599,78.0796 19.6099,156.5792 43.9497,223.4388 24.3199,66.8597 57.5497,121.9494 104.4595,171.2692 46.8598,49.3197 107.4195,92.9195 189.149,116.7094 81.7596,23.7798 184.6991,27.8298 270.1087,19.5199 85.4095,-8.31 153.3292,-28.9699 211.5389,-57.2798 58.2297,-28.3098 106.8095,-64.2696 148.5292,-108.3194 41.7498,-43.9998 76.7596,-96.0995 105.3595,-154.9892 28.5799,-58.8997 50.7697,-124.6194 59.7397,-190.739 8.97,-66.1497 4.71,-132.7394 -16.8799,-193.5391 -21.6099,-60.7496 -60.4797,-115.7894 -101.1495,-154.6492 -19.7499,-18.8999 -39.9198,-33.9998 -61.2197,-46.0697 12.1999,-0.4 24.1999,-1.01 35.8198,-1.8 52.9198,-3.57 98.0295,-10.69 138.7793,-25.3699 40.7398,-14.6799 77.2296,-36.8298 119.4294,-65.0597 42.1998,-28.2598 90.1196,-62.6296 127.7394,-97.3095 37.5498,-34.6898 64.7196,-69.7196 89.7795,-104.4894 25.0499,-34.6899 47.9098,-69.0297 68.6593,-102.9995 16.3499,-26.7999 31.3998,-53.3897 44.9197,-77.2896 3.6,-6.4 7.12,-12.59 10.51,-18.5399 1.56,-2.75 3.12,-5.45 4.63,-8.13 14.0399,-24.5799 25.7398,-45.0298 31.8498,-63.3897 6.77,-20.3999 6.77,-38.2898 -3.91,-32.8898 h 0.05 c -9.3699,4.69 -26.7799,26.9099 -51.1697,58.0797 -3.65,4.65 -7.46,9.52 -11.43,14.5499 -30.4298,38.5998 -69.7692,87.2596 -111.579,133.7994 -41.8798,46.5097 -86.1996,90.8295 -133.0593,131.2593 -46.8498,40.3998 -96.2195,76.8896 -142.3693,102.6595 -46.1098,25.7998 -89.0595,40.8198 -124.4594,48.9997 -35.4298,8.23 -63.3396,9.63 -87.9995,6.43 -24.6599,-3.18 -46.1198,-11.09 -67.5997,-26.1199 -21.4599,-14.9999 -42.9398,-37.1998 -57.9397,-58.9997 -15.0299,-21.7999 -23.5999,-43.2798 -30.3798,-73.3096 -6.77,-30.0299 -11.82,-68.6597 -13.23,-105.1495 -1.45,-36.4898 0.74,-70.8496 6.46,-105.1394 5.71,-34.3499 14.9999,-68.6397 21.4599,-89.4596 6.45,-20.7199 10.0199,-27.9098 15.7399,-32.1498 5.71,-4.34 13.5699,-5.71 30.7699,-3.6 10.3699,1.27 24.1598,3.92 41.8797,7.28 11.62,2.1999 24.8999,4.7399 40.0098,7.4099 38.2798,6.77 88.3196,14.6799 133.7694,13.23 45.4097,-1.4 86.1995,-12.17 133.0593,-29.7099 46.8597,-17.5499 99.8295,-41.8598 142.6893,-66.1997 42.9397,-24.3198 75.8296,-48.6597 100.1695,-84.7999 24.3198,-36.0898 40.0597,-84.0896 48.2397,-125.5494 8.25,-41.4598 8.99,-76.5696 3.59,-104.4795 -5.37,-27.9098 -16.7999,-48.6297 -32.5698,-70.1196 -15.74,-21.4499 -35.7399,-43.6498 -63.6497,-59.3397 -27.9199,-15.7399 -63.6897,-25.0599 -100.8895,-30.0298 -37.2298,-5 -75.8296,-5.72 -118.0294,-0.4 -42.1998,5.3699 -87.9996,16.7999 -130.5493,32.1498 -42.5898,15.4199 -81.8596,34.7098 -123.3994,60.0797 -41.4798,25.3999 -85.1396,56.8897 -123.0294,89.7995 -37.9398,32.8899 -70.1096,67.2597 -98.3695,105.9395 -28.2298,38.6898 -52.5497,81.8096 -73.3696,124.0694 -20.7199,42.2801 -38.0198,83.7399 -50.1698,124.0897 -12.1699,40.3498 -19.2799,79.5596 -24.2598,114.1894 -4.97,34.6099 -7.83,64.6597 -9.05,99.6995 -1.11,34.9999 -0.58,74.9497 4.08,115.3495 4.63,40.4097 13.4099,81.3595 34.6098,119.2993 21.2199,37.9499 54.8397,73.0597 92.7095,98.4295 8.53,5.72 17.27,10.94 26.2999,15.7 l -1.96,0.25 c -54.9097,7.1699 -105.8894,25.3998 -147.4792,52.1797 -41.6198,26.7799 -73.8497,62.1497 -89.7196,102.8195 -15.8299,40.7398 -15.2999,86.7795 -6.8599,114.9094 8.3899,28.1698 24.5798,38.4098 35.2998,39.6798 10.6899,1.25 15.8199,-6.4 16.6699,-19.5999 0.87,-13.2299 -2.52,-32.0398 -1.25,-52.0497 1.25,-20.0799 7.23,-41.3998 24.1099,-68.9197 16.8999,-27.5199 44.7397,-61.2197 77.5696,-82.9496 32.8398,-21.7199 70.7796,-31.6398 109.3294,-35.2098 38.5498,-3.65 77.8096,-1.06 109.8495,5.31 32.0498,6.3799 56.7597,16.6199 87.2595,36.5398 30.5099,19.9499 66.7297,49.5897 94.8595,98.4295 28.0999,48.8697 48.0498,116.9694 46.0598,191.029 -1.93,74.0296 -25.8699,154.0392 -62.5497,223.3589 -36.6898,69.3196 -86.2795,127.9493 -152.0492,172.1391 -65.7997,44.1798 -147.9593,74.0296 -220.6589,87.4696 -72.7096,13.4899 -135.9693,10.5599 -195.879,-2.07 -59.8697,-12.7 -116.2794,-35.2398 -166.8691,-75.2396 -50.5898,-40.0098 -95.2496,-97.5495 -122.6894,-166.8192 -27.4299,-69.1896 -37.6698,-149.9892 -37.6698,-235.5888 0,-85.6196 10.2399,-176.1291 33.2798,-274.6886 23.0699,-98.5595 58.8997,-205.239 96.0495,-319.1384 37.0898,-113.9294 75.4796,-235.1288 169.8092,-461.2976 94.2895,-226.1693 244.4987,-557.2876 336.6782,-756.1266 l 13.76,-29.6098 c 43.7998,3.06 86.5795,7.0099 125.9593,10.9899 85.0096,8.57 154.1193,17.2199 231.2189,30.8999 77.0496,13.7099 162.0291,32.4398 247.7887,45.3997 85.7196,12.97 172.1087,20.1399 252.0583,15.0799 79.9596,-4.9699 153.4592,-22.2498 222.5989,-50.3697 69.1096,-28.0499 133.9793,-66.9897 172.1391,-101.5495 38.1998,-34.5498 49.6898,-64.8796 58.3397,-90.0595 8.65,-25.1899 14.4199,-45.3298 10.1,-69.8497 -4.31,-24.5298 -18.7499,-53.2897 -31.6899,-66.9996 -12.9699,-13.67 -24.4799,-12.22 -30.9898,-5.05 -6.5,7.2 -7.96,20.1399 -24.5199,47.5198 -16.5399,27.3798 -48.2398,69.1396 -107.3395,109.4594 -59.0097,40.3498 -145.4692,79.2396 -247.0187,92.9195 -101.5695,13.71 -218.2485,2.12 -346.4678,-13.6799 -128.1894,-15.8199 -267.9687,-36.0398 -412.7179,-44.6598 -25.1199,-1.5 -50.3898,-2.65 -75.6696,-3.46 50.7497,-107.2394 75.2596,-154.9392 95.6395,-193.999 26.9398,-51.6497 46.5397,-88.3395 63.6096,-111.7894 17.09,-23.4599 31.5599,-33.6998 43.5198,-40.5298 11.99,-6.85 21.3499,-10.2399 22.1999,-17.0899 l 0.13,0.05 c 0.88,-6.83 -6.82,-17.0699 -22.1999,-26.8299 -15.3399,-9.8399 -38.3898,-19.2099 -59.7397,-21.7499 -21.3199,-2.5899 -40.9298,1.75 -60.6197,9.37 -19.5999,7.73 -39.2598,18.7599 -56.7497,34.9798 -17.4599,16.2199 -32.8298,37.5398 -52.8897,76.3596 -20.0799,38.8098 -44.7898,95.1695 -84.9596,178.7791 -16.0099,33.3698 -34.4498,71.0997 -54.3597,112.0694 -62.4997,1.76 -122.8394,5.69 -178.5491,11.75 -125.9894,13.6799 -228.2788,38.1298 -341.3883,77.7296 -113.1394,39.6398 -237.0087,94.3295 -315.4884,130.3393 v 0.08 c -78.4996,36.0098 -111.6494,53.2798 -128.9593,77.0996 -17.2799,23.7799 -18.7299,54.0298 -15.1299,72.0397 3.57,17.9999 12.2199,23.7898 26.6398,17.2799 14.37,-6.46 34.5599,-25.1899 59.7397,-43.9498 25.1899,-18.7299 55.5098,-37.4098 102.2895,-61.9397 46.8598,-24.4399 110.2495,-54.6797 196.269,-84.5296 86.0696,-29.7698 194.729,-59.1596 291.2285,-78.5496 92.0596,-18.5399 173.1092,-27.9098 260.7687,-29.1198 -17.6699,36.9698 -35.8898,75.6596 -54.1097,115.4494 -55.5097,121.1494 -110.9094,252.6187 -163.0292,379.7581 -52.0497,127.1293 -100.6795,250.0787 -145.4692,370.7785 -23.2299,62.6097 -45.4198,124.6494 -65.5197,183.1991 -3.84,2.9399 -8.83,7.7899 -15.1499,14.5299 -14.24,15.1599 -35.0299,39.7398 -56.8397,67.6496 -21.7199,27.9099 -44.4498,59.1597 -75.6897,94.6396 -31.2198,35.5098 -70.9596,75.2496 -110.2494,108.8794 -39.2898,33.6298 -78.0796,61.0097 -105.9995,74.2896 -27.9098,13.23 -44.9497,12.31 -59.6297,-0.92 -14.6899,-13.2299 -26.9898,-38.8198 -32.6298,-68.5796 -5.66,-29.7999 -4.71,-63.8697 5.19,-112.1294 9.9699,-48.2598 28.8398,-110.7295 56.7497,-181.2391 27.9199,-70.5197 64.7997,-149.0693 99.3495,-218.1289 34.5798,-69.1301 66.7297,-128.7398 94.1995,-173.1895 27.4299,-44.4798 50.1598,-73.8497 66.2497,-96.9695 16.0799,-23.2099 25.5298,-40.2198 -5.19,-49.2398 l -0.05,-0.13 c -30.7698,-8.9999 -101.7595,-9.9299 -142.8993,-7.12 -41.1498,2.86 -52.4997,9.44 -74.7696,32.6199 -22.2599,23.2099 -55.3597,62.9497 -91.3095,117.3694 -35.9598,54.4297 -74.7696,123.4794 -107.0795,183.9094 -32.2998,60.4097 -58.1497,112.1095 -81.4096,180.3691 -4.8999,14.39 -9.6899,29.5099 -14.2899,45.0898 -13.6499,20.5399 -29.0398,39.3498 -47.7797,58.1797 -28.7899,28.9199 -65.4597,57.8297 -98.3695,75.1596 -32.9699,17.3099 -62.1297,22.9399 -92.3696,0.27 -30.2398,-22.7299 -61.5397,-73.7696 -73.1096,-127.2693 -6.82,-31.6899 -6.72,-64.2597 -6.64,-99.7195 0.08,-24.3699 0.16,-50.0798 -2.01,-77.7796 -5.3699,-67.9197 -24.3098,-147.8297 -51.3797,-190.0295 -27.0399,-42.1997 -62.1997,-46.6397 -94.2395,-28.9698 -32.0199,17.6699 -60.9397,57.5497 -71.9697,107.8698 -11.0299,50.2998 -4.1299,111.1295 8.49,160.9692 4.71,18.4199 10.1899,35.3498 15.4799,51.7298 9.05,27.9398 17.5699,54.2597 20.7399,83.5795 5,46.5098 -3.44,100.7495 -24.6299,149.4593 -21.1398,48.7897 -54.9797,92.0495 -94.1895,120.5694 -39.1298,28.5298 -83.7396,42.2597 -116.7094,45.8597 -32.9698,3.6 -54.3397,-2.99 -75.0296,-23.5999 -20.6699,-20.5899 -40.5398,-55.1397 -55.0397,-89.7795 -14.4699,-34.5498 -23.5199,-69.1896 -29.9499,-113.1894 -6.4499,-43.9998 -10.3199,-97.3595 -8.6499,-147.1293 1.67,-49.7997 8.8399,-95.9095 19.2899,-134.6493 l 0.13,0.14 c 10.4799,-38.7698 24.2399,-70.0696 41.1198,-95.7795 16.9599,-25.6703 36.9598,-45.7202 72.0396,-80.15 3.02,-2.96 6.17,-6.03 9.4,-9.2 34.3398,-33.6898 80.2195,-78.6596 127.1293,-127.3193 51.3497,-53.2397 103.9295,-110.8594 160.9692,-174.7291 56.9397,-63.8697 118.3494,-133.9893 173.4591,-204.149 36.9298,-46.9997 71.0496,-94.0395 100.2795,-141.2493 164.4592,-28.3398 320.5984,-65.9596 493.0475,-119.2394 256.0087,-79.0795 547.9772,-192.719 783.106,-327.8883 235.1388,-135.2093 413.5179,-291.9685 540.0673,-436.5378 126.5493,-144.5392 201.3689,-276.8586 242.3087,-396.9579 41.0098,-120.0894 48.1998,-227.9589 44.5998,-330.1184 -3.59,-102.1494 -17.9299,-198.459 -53.2297,-286.9085 -35.2199,-88.4496 -91.3096,-169.0191 -167.5592,-245.9588 -76.2296,-76.9596 -172.5891,-150.3292 -275.3986,-202.7689 -102.8195,-52.5198 -212.1489,-84.1396 -341.6082,-108.6195 -129.4594,-24.4398 -278.9986,-41.7198 -426.4279,-49.6297 -147.3992,-7.91 -292.6785,-6.46 -452.3277,10.1099 -159.6192,16.5299 -333.6083,48.1798 -560.9171,99.2095 -227.2189,51.0398 -507.6974,121.4994 -731.3263,180.4991 -223.6489,58.9497 -390.468,106.4195 -615.5769,179.0491 -225.0788,72.6496 -508.4174,170.4191 -736.8362,247.2487 -228.4389,76.8097 -402.028,132.6394 -582.3171,184.4891 -180.309,51.8397 -367.4781,99.6995 -556.7571,141.0293 -189.2891,41.3298 -380.7381,76.1696 -564.0372,97.8895 -183.299,21.7299 -358.4281,30.4598 -515.6673,13.6299 -157.1892,-16.8799 -296.4185,-59.2897 -399.498,-106.9994 -103.0795,-47.7298 -169.9391,-100.7495 -217.7989,-157.4492 -47.8397,-56.6997 -76.6296,-117.1094 -90.9895,-179.6491 -14.34,-62.5297 -14.34,-127.2694 0.74,-194.179 15.0799,-66.8597 45.3197,-135.9193 97.8395,-220.7989 52.4897,-84.8696 127.2593,-185.5491 251.6687,-307.0484 55.5497,-54.2798 121.0094,-112.6995 191.219,-170.6692 l 16.0799,-7.5799 c 108.1095,-50.5598 263.7087,-115.8795 458.2277,-178.9091 194.549,-63.0697 427.9378,-123.7394 759.3861,-186.7391 331.4384,-63.0797 760.9862,-128.3993 1125.8443,-170.4191 364.8582,-41.9898 665.2166,-60.7497 966.0651,-55.6897 300.8885,4.9999 602.3469,33.7098 850.4457,71.7796 248.1587,38.0698 442.9377,85.4596 597.1369,147.2893 154.1992,61.8096 267.7887,138.0893 350.1783,222.1688 82.4895,84.0596 133.7193,175.9191 161.1791,216.4589 27.4399,40.5298 31.0899,29.7599 31.8299,12.35 l 0.03,-0.92 c 7.2999,8.7999 15.9599,11.6699 23.7598,0.18 l 0.39,0.48 c 12.25,-18.0199 22.3399,-71.1697 37.4399,-127.2594 15.0799,-56.0997 35.2198,-115.0494 63.2596,-183.3891 28.0499,-68.3096 64.0097,-145.9892 97.1095,-218.5688 33.0999,-72.6497 63.2597,-140.2293 81.2796,-208.569 18.0099,-68.3196 23.7299,-137.3693 10.77,-199.179 -12.97,-61.8597 -44.6098,-116.4894 -99.2195,-162.4791 -54.6397,-46.0098 -132.3493,-83.4196 -248.0988,-116.5195 -115.7794,-33.0998 -269.7186,-61.8596 -468.8976,-84.1395 -199.179,-22.2499 -443.6777,-38.1498 -633.5668,-44.5798 -106.6594,-3.68 -196.099,-4.36 -294.3085,-2.71 z m 1501.0924,4354.5579 c 75.6196,0 136.9193,-61.3097 136.9193,-136.9293 0,-75.6097 -61.2997,-136.9193 -136.9193,-136.9193 -75.6196,0 -136.8893,61.3096 -136.8893,136.9193 0,75.6196 61.2697,136.9293 136.8893,136.9293 z m -792.386,-597.787 c -75.2496,15.4899 -150.5292,28.8099 -226.7288,40.8398 l 9.6599,-17.2799 c 36.3499,-64.4797 70.1897,-118.3694 98.9495,-152.7992 28.7899,-34.4199 52.6498,-49.4498 72.6597,-56.9597 20.0499,-7.52 36.3498,-7.52 48.2297,3.1199 11.91,10.64 19.4199,31.9599 18.1499,70.7797 -0.93,28.3798 -6.5199,66.0296 -20.9199,112.2994 z m -340.3482,258.6587 c 48.2697,-4.56 95.4795,-9.51 141.3493,-14.8599 29.6198,-3.46 58.6797,-7.09 87.2895,-10.92 -12.7599,21.2199 -26.0599,42.3998 -39.6398,63.1697 -53.2297,81.4196 -110.8594,156.5792 -180.3691,237.3388 -69.4996,80.7996 -150.8592,167.2091 -187.219,192.269 v -0.08 c -36.2998,25.0599 -27.5099,-11.2199 -6.24,-66.9896 21.2699,-55.7498 55.0897,-130.9194 89.5096,-204.179 30.9698,-65.8297 62.4396,-130.2093 95.3195,-195.749 z m 1986.3599,725.3067 c -4.92,-15.5299 -4.47,-35.1598 1.85,-58.2901 6.3799,-23.0399 18.5999,-49.6298 31.5098,-72.3596 12.8899,-22.7299 26.3799,-41.5398 41.3298,-60.5397 14.8999,-19.0199 31.2998,-38.2298 50.5097,-58.6797 19.2099,-20.4799 41.3498,-42.1498 62.8097,-58.8997 21.4599,-16.7499 42.3398,-28.6499 64.7997,-39.8698 22.5399,-11.25 46.6397,-21.8799 68.7096,-28.6499 22.0699,-6.7299 42.1498,-9.5799 60.7497,-8.5799 18.5999,1.06 35.7698,5.9799 48.8398,14.7699 13.0999,8.7499 22.1499,21.4499 27.4698,37.8098 5.31,16.3499 6.9,36.3498 4.04,56.2197 -2.85,19.8199 -10.2399,39.4798 -20.6599,61.1397 -10.4499,21.6699 -23.9199,45.4098 -39.4798,68.9296 -15.5499,23.5199 -33.0998,46.8598 -55.8197,68.7097 -22.7299,21.8799 -50.5097,42.3302 -78.9596,60.3501 -28.4399,17.9399 -57.4897,33.4998 -84.4796,43.9198 -26.9798,10.4499 -51.9097,15.6899 -77.8896,16.9599 -25.9798,1.27 -52.9697,-1.58 -71.5696,-8.78 -18.6299,-7.1699 -28.8399,-18.5999 -33.7598,-34.1598 z M 3471.287,8084.1472 c -7.6699,9.2699 -16.6499,20.7099 -26.8398,33.7198 -3.65,4.65 -7.46,9.52 -11.43,14.5499 -30.4198,38.6298 -69.7696,87.2596 -111.5694,133.7993 -41.8898,46.5098 -86.1996,90.8596 -133.0593,131.2594 -46.8598,40.3998 -96.2295,76.8896 -142.3493,102.6795 -46.1398,25.7698 -89.0595,40.7997 -124.4794,48.9797 -35.4298,8.23 -63.3396,9.63 -87.9995,6.45 -24.6599,-3.2 -46.1198,-11.11 -67.5997,-26.1399 -21.4599,-14.9999 -42.9198,-37.1998 -57.9497,-58.9997 -15.0299,-21.7999 -23.5999,-43.2598 -30.3698,-73.3196 -6.78,-30.0299 -11.83,-68.6497 -13.23,-105.1395 -1.4599,-36.4898 0.74,-70.8296 6.45,-105.1195 5.72,-34.3698 15.0299,-68.6596 21.4599,-89.4595 6.46,-20.7399 10.03,-27.9099 15.7699,-32.1698 5.72,-4.34 13.55,-5.71 30.7699,-3.6 10.3499,1.3 24.1298,3.92 41.8598,7.28 11.6099,2.1999 24.8998,4.7399 39.9997,7.4099 38.2899,6.77 88.3496,14.6799 133.7994,13.2299 45.3797,-1.4099 86.2095,-12.1699 133.0593,-29.7198 46.8298,-17.5399 99.7995,-41.8498 142.6893,-66.1897 42.9197,-24.3198 75.8296,-48.6397 100.1495,-84.7995 24.3098,-36.0903 40.0798,-84.06 48.2597,-125.5498 8.23,-41.4598 8.97,-76.5396 3.57,-104.4595 -5.37,-27.9098 -16.7999,-48.6497 -32.5698,-70.1396 -15.74,-21.4499 -35.7499,-43.6498 -63.6597,-59.3397 -27.9099,-15.7499 -63.6597,-25.0599 -100.8895,-30.0299 -37.2198,-4.9799 -75.8196,-5.7199 -118.0294,-0.4 -42.1998,5.37 -87.9996,16.8 -130.5393,32.1699 -42.5998,15.3999 -81.8596,34.6898 -123.3994,60.0597 -41.4898,25.3998 -85.1496,56.9197 -123.0294,89.7995 -37.9498,32.8899 -70.1196,67.2597 -98.3495,105.9395 -28.2598,38.6798 -52.5697,81.8096 -73.3696,124.0898 -20.5599,41.8897 -37.7198,83.0095 -49.8698,123.0093 -12.3599,3.61 -24.2598,11.09 -35.9098,21.9299 -20.8699,19.4199 -41.0098,49.6598 -60.4297,71.1697 -19.3899,21.6198 -38.1498,34.5098 -65.4596,41.0097 -27.2999,6.46 -63.2597,6.46 -97.8395,-7.1699 -34.4699,-13.68 -67.5697,-41.0098 -82.6496,-76.2196 -15.1099,-35.2199 -12.25,-78.3696 0.71,-117.8994 12.9599,-39.5598 35.9598,-75.5096 54.6397,-125.8898 18.6799,-50.2997 33.0998,-115.0394 37.4098,-172.5891 4.34,-57.5697 -1.46,-107.8695 -12.2299,-138.0293 -10.76,-30.1899 -26.5899,-40.2998 -49.6298,-41.6698 -22.9899,-1.48 -53.2397,5.71 -84.8795,23.6999 -31.6399,18.0199 -64.7397,46.8097 -86.9896,86.9995 -22.2799,40.2998 -33.8398,92.0496 -35.9598,140.2493 -2.2,48.1898 5.05,92.7696 10.0299,130.1294 5.05,37.4102 7.91,67.57 3.59,97.0999 -4.31,29.4998 -15.8199,58.2897 -38.1498,102.8194 -22.2499,44.5798 -55.3497,104.9795 -93.4995,162.4792 -38.1498,57.5697 -81.2796,112.1794 -123.6894,150.3293 -42.4698,38.1598 -84.1396,59.6896 -120.8394,70.4596 -36.6698,10.7699 -68.3096,10.7699 -91.3095,-7.17 -22.9899,-17.9599 -37.4098,-53.9197 -43.1198,-98.4995 -5.8,-44.6097 -2.86,-97.8495 10.76,-157.5092 13.6799,-59.6897 38.0798,-125.8093 65.4596,-194.869 27.3099,-69.0496 57.5497,-140.9697 88.4496,-201.3694 30.9098,-60.4296 62.5497,-109.3294 87.7395,-143.8292 25.1899,-34.4998 43.8698,-54.6297 5.05,-64.7397 -38.8098,-10.0299 -135.1693,-10.0299 -193.459,0 -58.2397,10.05 -78.4196,30.1899 -109.3295,71.1996 -30.8998,40.9798 -72.6496,102.7895 -107.8694,168.9892 -35.2098,66.2001 -63.9997,136.6597 -98.4995,204.9693 -34.4798,68.3197 -74.7696,134.4594 -110.7294,189.1491 -35.9299,54.6397 -67.5797,97.8195 -102.78948,135.1793 -35.23982,37.4098 -74.10962,69.0496 -111.46943,81.2796 -37.40981,12.2199 -73.36963,5.05 -91.30954,-30.2399 -18.01991,-35.2198 -18.01991,-98.4795 1.45999,-187.669 19.3899,-89.1896 58.20971,-204.239 99.95949,-300.6185 41.66979,-96.3599 86.24956,-173.9895 143.81927,-243.0491 57.5497,-69.0597 128.0093,-129.4594 230.7988,-187.6691 102.8195,-58.2297 238.0688,-114.3194 348.0582,-152.4792 110.0095,-38.0698 194.869,-58.2097 291.2485,-71.9096 96.3595,-13.68 204.229,-20.8499 321.4684,-21.5899 117.2394,-0.74 243.7588,5.0499 440.8178,9.3599 197.069,4.34 464.5576,7.2 751.4661,5.8 286.9186,-1.46 593.307,-7.2 890.9855,-9.37 140.3093,-1.03 278.7186,-1.26 417.1779,-2.03 -63.6697,147.3293 -126.3794,297.7285 -186.7591,445.1778 -85.8295,209.6893 -166.8891,413.3783 -242.6387,613.6173 -31.2799,32.6898 -63.8397,63.9596 -97.7395,93.1895 -46.8598,40.4298 -96.2295,76.9196 -142.3793,102.6895 -46.1098,25.7898 -89.0296,40.8198 -124.4494,48.9997 -35.4298,8.23 -63.3497,9.63 -88.0095,6.43 -24.6499,-3.18 -46.1098,-11.09 -67.5997,-26.1199 -21.4499,-15.0299 -42.9098,-37.2298 -57.9397,-59.0297 -15.0299,-21.7699 -23.5999,-43.2598 -30.3698,-73.2896 -6.78,-30.0499 -11.83,-68.6597 -13.23,-105.1395 -1.46,-36.4898 0.74,-70.8596 6.45,-105.1494 5.72,-34.3699 14.9999,-68.6597 21.4599,-89.4496 6.46,-20.7499 10.0299,-27.9198 15.7399,-32.1798 5.72,-4.31 13.5799,-5.71 30.7698,-3.57 10.38,1.27 24.1599,3.89 41.8898,7.28 11.61,2.1899 24.8899,4.7099 39.9998,7.4099 38.2898,6.77 88.3196,14.6799 133.7994,13.2299 45.3797,-1.4099 86.1995,-12.1799 133.0293,-29.7198 46.8597,-17.5399 99.8295,-41.8798 142.6892,-66.1997 42.9498,-24.3098 75.8597,-48.6497 100.1795,-84.7895 24.3099,-36.0902 40.0798,-84.09 48.2598,-125.5498 8.22,-41.4898 8.9699,-76.5696 3.57,-104.4795 -5.37,-27.9198 -16.7999,-48.6597 -32.5699,-70.1196 -15.7499,-21.4599 -35.7498,-43.6498 -63.6596,-59.3397 -27.9199,-15.7499 -63.6597,-25.0599 -100.8895,-30.0298 -37.2198,-5 -75.8296,-5.75 -118.0294,-0.43 -42.1998,5.3999 -87.9996,16.8299 -130.5394,32.1798 -42.5997,15.4199 -81.8695,34.6798 -123.3993,60.0797 -41.4898,25.3999 -85.1496,56.8897 -123.0394,89.7995 -37.9398,32.8899 -70.1096,67.2597 -98.3395,105.9395 -28.2599,38.6798 -52.5697,81.81 -73.3996,124.0598 -20.7099,42.2797 -37.9898,83.7495 -50.1598,124.0893 -1.04,3.46 -2.04,6.9 -3.01,10.34 z m 331.3584,-82.9096 c -4.9,-15.5599 -4.45,-35.1598 1.8699,-58.2897 6.38,-23.0699 18.6,-49.6298 31.4899,-72.36 12.9099,-22.7599 26.4099,-41.5398 41.3498,-60.5697 14.8699,-18.9899 31.2998,-38.1998 50.5097,-58.6797 19.2099,-20.4799 41.3298,-42.1198 62.8197,-58.8697 21.4499,-16.7499 42.3298,-28.6499 64.7897,-39.8998 22.5199,-11.22 46.6497,-21.8499 68.7096,-28.6299 22.0699,-6.72 42.1498,-9.5699 60.7497,-8.5699 18.5999,1.06 35.7498,5.9799 48.8398,14.7399 13.0999,8.7799 22.1498,21.4799 27.4698,37.8298 5.32,16.3499 6.9,36.3598 4.05,56.2297 -2.86,19.7899 -10.2399,39.4698 -20.6699,61.1397 -10.4499,21.6699 -23.9399,45.3798 -39.4698,68.9296 -15.5599,23.5199 -33.0998,46.8302 -55.8297,68.7101 -22.7499,21.8499 -50.5398,42.3298 -78.9796,60.3497 -28.4399,17.9399 -57.4697,33.4998 -84.4496,43.9198 -26.9898,10.4299 -51.9197,15.6899 -77.8996,16.9599 -25.9798,1.24 -52.9697,-1.61 -71.5896,-8.78 -18.5999,-7.1699 -28.8399,-18.5999 -33.7598,-34.1598 z m -1006.0249,-18.7299 c -4.92,-15.5599 -4.44,-35.1698 1.85,-58.2897 6.3799,-23.0699 18.6299,-49.6602 31.5098,-72.39 12.8899,-22.7299 26.3799,-41.5398 41.3298,-60.5397 14.8999,-18.9999 31.3298,-38.1998 50.5097,-58.6797 19.2099,-20.4799 41.3598,-42.1198 62.8097,-58.8697 21.4899,-16.75 42.3398,-28.6599 64.7997,-39.8998 22.5399,-11.22 46.6697,-21.8599 68.7396,-28.6299 22.0599,-6.72 42.1198,-9.5799 60.7497,-8.5699 18.5999,1.0599 35.7398,5.9799 48.8398,14.7399 13.0999,8.7799 22.1199,21.4799 27.4398,37.8298 5.31,16.3499 6.9,36.3498 4.04,56.2197 -2.85,19.7999 -10.2099,39.4798 -20.6599,61.1497 -10.4199,21.6699 -23.9199,45.3798 -39.4798,68.8996 -15.5499,23.5499 -33.0898,46.8498 -55.8197,68.7401 -22.7299,21.8499 -50.5097,42.3298 -78.9496,60.3497 -28.4498,17.9399 -57.4997,33.4898 -84.4896,43.9198 -26.9598,10.4199 -51.8797,15.6899 -77.8896,16.9599 -25.9798,1.24 -52.9697,-1.62 -71.5696,-8.79 -18.5999,-7.1699 -28.8399,-18.5999 -33.7598,-34.1498 z m 1962.24,-5975.9 c -110.8194,47.1198 -207.609,120.8394 -282.3286,213.1489 -106.7494,-83.6696 -237.3788,-138.2393 -379.968,-151.7992 1.9799,-6.73 3.9699,-14.0699 5.9499,-22.0699 11.7,-47.5098 23.3899,-118.0294 40.5398,-194.649 17.1399,-76.6996 39.6898,-159.5192 62.2797,-238.9988 22.5199,-79.4796 45.1098,-155.6992 73.3696,-227.2188 28.2599,-71.5197 62.0697,-138.3793 100.6995,-207.489 38.5198,-69.1896 81.8096,-140.6993 132.6393,-207.48893 50.8498,-66.79966 109.1395,-128.93934 155.2493,-173.59911 46.1197,-44.72977 80.0095,-71.97964 105.4094,-88.91955 25.3999,-16.94991 42.3398,-23.52988 54.5597,-23.99988 12.23,-0.46 19.7399,5.18998 24.4799,10.36995 4.63,5.18997 6.56,9.83995 1.85,19.2699 -4.71,9.43995 -16.0099,23.52988 -27.7799,39.5498 -11.7799,15.94992 -23.9998,33.82983 -43.7397,75.22962 -19.7399,41.40979 -47.0398,106.33946 -66.7797,168.40914 -19.7399,62.07966 -31.9898,121.35936 -41.4098,190.07906 -9.4399,68.6496 -16.0299,146.7592 -17.4099,222.9788 -1.4,76.2296 2.38,150.5193 8.5,213.1489 6.1099,62.5997 14.6299,113.3795 26.8498,165.5992 12.22,52.1797 28.2599,105.8095 40.9298,145.3693 10.18,31.6298 18.2199,54.2097 26.1099,73.0796 z m -982.465,473.6476 c -77.2096,77.2296 -185.6891,93.9295 -242.2788,37.3298 -56.5897,-56.5897 -39.8998,-165.0692 37.3298,-242.2788 77.2096,-77.1996 185.6891,-93.9195 242.2788,-37.3298 56.5997,56.5997 39.8698,165.0792 -37.3298,242.2788 z"
   id="path1"
   style="stroke-width:0.999995"
   sodipodi:nodetypes="csscccccccccccccccccccccccccccccccccccsccccccccscccccccccccccccccccscccccccsccccccccccccccccccccccccccccccccccsccccccsccccccccccccccccccscccsccccccccccccccccscccccscccccccccccccccscccccccccccccsccccccscccccsccccccccccccscccccccccccccccccccccccccccccccccsccccccccscccccccccccccccccccccccccccccccccccscccccccccccccccccccccccccccccccccccccsccccccccccccccscccccccccccccsccccccccccccccccssccsccccccccccccccccccccccccccccccccccccccccccccccccccccscccccsssssccccccsccccccccccccccccscccccccccccsccccccsccccsccccccssccccccscccccccccscccccccccccccccccccccccscccccccccccccccscccccccccccccccccccccccccccccccccccccccccscccccsccccccccccccccccccccsccccscscccccccscccccccccccccccccccsc" />
  <path
   class="fil1"
   d="m 6983.7392,4547.6748 -0.03,0.92 c -0.74,17.4099 -4.39,28.1798 -31.8299,-12.35 -27.4598,-40.5398 -78.6896,-132.3993 -161.1791,-216.4589 -82.3896,-84.0795 -195.9791,-160.3592 -350.1783,-222.1688 -154.1992,-61.8297 -348.9782,-109.2195 -597.1369,-147.2893 -248.0988,-38.0698 -549.5572,-66.7797 -850.4457,-71.7796 -300.8485,-5.06 -601.2069,13.6999 -966.0651,55.6897 -364.8581,42.0198 -794.4059,107.3394 -1125.8443,170.4191 -331.4483,62.9997 -564.8371,123.6694 -759.3861,186.7391 -194.519,63.0296 -350.1182,128.3493 -458.2277,178.9091 l -16.0799,7.5799 c 87.0396,-71.8596 181.3891,-143.0093 273.3386,-204.6889 166.0992,-111.4695 324.3484,-192.0091 504.1075,-266.0387 179.779,-74.1096 381.098,-141.6293 588.247,-202.059 207.0889,-60.4097 419.9678,-113.6394 673.7765,-161.8191 253.8188,-48.1798 548.6973,-91.3096 868.7056,-122.2394 320.0084,-30.8999 665.2166,-49.6298 959.2951,-57.5397 294.1585,-7.92 537.2073,-5.06 769.4861,7.9099 232.2788,12.96 453.7777,35.9499 591.097,66.1197 137.3793,30.1898 190.5291,67.5997 218.5789,99.9595 28.0399,32.3798 30.8999,59.6897 27.3299,94.1895 -3.6,34.4698 -13.71,76.2196 -29.4999,124.3994 -15.8299,48.1897 -37.4398,102.8195 -58.9797,154.6492 -21.5899,51.7797 -43.1298,100.6995 -61.8597,148.1392 -18.6799,47.4698 -34.4998,93.5296 -38.8098,143.8293 -4.3199,50.3198 2.85,105.0095 7.17,143.8293 4.31,38.8098 5.79,61.8097 13.6999,81.9396 2.87,7.2899 6.57,14.1999 10.72,19.2099 z"
   id="path2"
   style="stroke-width:0.999995" />
  <path
   class="fil2"
   d="m 7188.1081,6656.894 c 26.3199,-37.0498 53.2998,-78.7296 79.9496,-125.5693 73.3697,-128.9294 144.3593,-296.9385 168.0092,-454.3177 23.6498,-157.3692 0,-304.0585 -66.2497,-407.0079 -66.2797,-102.9395 -175.1291,-162.1092 -339.5683,-197.589 -164.4091,-35.4799 -384.538,-47.3298 -638.8867,-28.3899 -254.3387,18.9499 -543.0573,68.6097 -864.8356,140.7893 -321.8084,72.1496 -676.7766,166.7891 -998.5849,243.7087 -321.7884,76.8797 -610.4969,136.0494 -845.3157,177.1591 -234.7888,41.1398 -415.6279,64.3497 -599.277,82.4996 -183.6191,18.1199 -370.0481,31.3499 -640.6567,10.16 -244.5088,-19.1399 -557.7672,-66.2997 -773.3161,-116.5394 89.4096,14.5299 184.4891,22.3999 283.0686,26.9998 184.839,8.66 381.818,5.72 577.397,-13.6699 195.609,-19.4299 389.808,-55.3797 613.4369,-108.6194 223.6489,-53.2298 476.7976,-123.6594 714.7964,-190.5191 237.9888,-66.8596 460.9776,-130.1493 707.5964,-201.379 246.6387,-71.1996 517.0673,-150.3292 750.7462,-220.0488 233.7388,-69.7997 430.7378,-130.1494 640.7367,-183.3791 210.0289,-53.2397 432.9378,-99.2195 626.3268,-125.1494 193.489,-25.8998 357.4182,-31.6198 545.1172,-22.2499 187.6891,9.36 399.088,33.7599 560.9372,91.2996 161.8192,57.5797 273.9486,148.1392 346.0482,243.7087 72.0397,95.5996 104.0095,196.219 107.2095,309.8585 3.17,113.6294 -22.3299,240.4487 -81.9396,359.1381 -59.6397,118.7194 -153.2792,229.4189 -269.3786,331.5184 -116.0894,102.0794 -254.5987,195.449 -403.748,277.3885 -64.3297,35.3699 -130.6293,68.5897 -199.619,100.1995 z"
   id="path3"
   style="stroke-width:0.999995" />
 </g>
</svg>
