<svg width="32" height="33" viewBox="0 0 32 33" fill="none" xmlns="http://www.w3.org/2000/svg">
<g clip-path="url(#clip0_41_397)">
<path fill-rule="evenodd" clip-rule="evenodd" d="M15.9995 30.35C23.5106 30.35 29.5995 24.2611 29.5995 16.75C29.5995 9.23895 23.5106 3.15002 15.9995 3.15002C8.48841 3.15002 2.39948 9.23895 2.39948 16.75C2.39948 19.0655 2.97812 21.2458 3.99869 23.1542L2.19971 30.55L9.35136 28.6171C11.317 29.7207 13.5848 30.35 15.9995 30.35Z" fill="#573428"/>
<path d="M27.2801 5.406C24.2881 2.398 20.3041 0.75 16.0641 0.75C7.32808 0.75 0.208078 7.87 0.208078 16.606C0.208078 19.406 0.944078 22.126 2.32008 24.526L0.0800781 32.75L8.48008 30.542C10.8001 31.806 13.4081 32.478 16.0641 32.478C24.8001 32.478 31.9201 25.358 31.9201 16.622C31.9201 12.382 30.2721 8.398 27.2801 5.406ZM16.0641 29.79C13.6961 29.79 11.3761 29.15 9.34408 27.95L8.86408 27.662L3.87208 28.974L5.20008 24.11L4.88008 23.614C3.56808 21.518 2.86408 19.086 2.86408 16.606C2.86408 9.342 8.78408 3.422 16.0481 3.422C19.5681 3.422 22.8801 4.798 25.3601 7.294C27.8561 9.79 29.2161 13.102 29.2161 16.622C29.2481 23.886 23.3281 29.79 16.0641 29.79ZM23.2961 19.934C22.8961 19.742 20.9441 18.782 20.5921 18.638C20.2241 18.51 19.9681 18.446 19.6961 18.83C19.4241 19.23 18.6721 20.126 18.4481 20.382C18.2241 20.654 17.9841 20.686 17.5841 20.478C17.1841 20.286 15.9041 19.854 14.4001 18.51C13.2161 17.454 12.4321 16.158 12.1921 15.758C11.9681 15.358 12.1601 15.15 12.3681 14.942C12.5441 14.766 12.7681 14.478 12.9601 14.254C13.1521 14.03 13.2321 13.854 13.3601 13.598C13.4881 13.326 13.4241 13.102 13.3281 12.91C13.2321 12.718 12.4321 10.766 12.1121 9.966C11.7921 9.198 11.4561 9.294 11.2161 9.278C10.9761 9.278 10.7201 9.278 10.4481 9.278C10.1761 9.278 9.76008 9.374 9.39208 9.774C9.04008 10.174 8.01608 11.134 8.01608 13.086C8.01608 15.038 9.44008 16.926 9.63208 17.182C9.82408 17.454 12.4321 21.454 16.4001 23.166C17.3441 23.582 18.0801 23.822 18.6561 23.998C19.6001 24.302 20.4641 24.254 21.1521 24.158C21.9201 24.046 23.5041 23.198 23.8241 22.27C24.1601 21.342 24.1601 20.558 24.0481 20.382C23.9361 20.206 23.6961 20.126 23.2961 19.934Z" fill="#6F4C41"/>
</g>
<defs>
<clipPath id="clip0_41_397">
<rect width="32" height="32" fill="white" transform="translate(0 0.75)"/>
</clipPath>
</defs>
</svg>
